<svg xmlns="http://www.w3.org/2000/svg" viewBox="0 0 27.6 27.57"><defs><style>.cls-1{fill:#fff;}</style></defs><g id="Capa_2" data-name="Capa 2"><g id="Capa_1-2" data-name="Capa 1"><g id="paper-plane"><path class="cls-1" d="M27.6,1.4A1.62,1.62,0,0,0,27.51,1V.9a1.39,1.39,0,0,0-.27-.41,1.34,1.34,0,0,0-.4-.27h-.13a1.25,1.25,0,0,0-.42-.2h-.07a1,1,0,0,0-.42,0L1,8.3A1.38,1.38,0,0,0,.07,10a1.36,1.36,0,0,0,.88.88l11.78,3.92,3.92,11.78a1.37,1.37,0,0,0,1.74.88,1.36,1.36,0,0,0,.88-.88L27.56,1.77A1.55,1.55,0,0,0,27.6,1.4ZM21.11,4.56l-7.69,7.69L5.73,9.68ZM17.93,21.89,15.36,14.2l7.69-7.7Z"/></g></g></g></svg>