<svg xmlns="http://www.w3.org/2000/svg" viewBox="0 0 47.15 41.6"><defs><style>.cls-1{fill:#fff;}</style></defs><g id="Capa_2" data-name="Capa 2"><g id="Capa_1-2" data-name="Capa 1"><path class="cls-1" d="M18.6,30.26a.77.77,0,0,1-.5-.18l-5-4.29a.79.79,0,0,1,0-1.19l5-4.29a.78.78,0,0,1,1.1.09.79.79,0,0,1-.09,1.1l-4.34,3.69,4.34,3.7A.79.79,0,0,1,19.2,30,.8.8,0,0,1,18.6,30.26Z"/><path class="cls-1" d="M28.55,30.26A.8.8,0,0,1,28,30a.78.78,0,0,1,.09-1.1l4.34-3.7L28,21.5a.78.78,0,0,1,1-1.19l5,4.29a.79.79,0,0,1,0,1.19l-5,4.29A.81.81,0,0,1,28.55,30.26Z"/><path class="cls-1" d="M21.79,33.48l-.16,0a.78.78,0,0,1-.6-.92l3.14-14.91a.78.78,0,1,1,1.52.33l-3.14,14.9A.78.78,0,0,1,21.79,33.48Z"/><path class="cls-1" d="M41.92,41.6H5.23A5.23,5.23,0,0,1,0,36.37V5.23A5.23,5.23,0,0,1,5.23,0H41.92a5.23,5.23,0,0,1,5.23,5.23V36.37A5.24,5.24,0,0,1,41.92,41.6ZM5.23,1.56A3.67,3.67,0,0,0,1.56,5.23V36.37A3.67,3.67,0,0,0,5.23,40H41.92a3.67,3.67,0,0,0,3.67-3.67V5.23a3.67,3.67,0,0,0-3.67-3.67Z"/><path class="cls-1" d="M46.37,12.46H.78A.77.77,0,0,1,0,11.69a.78.78,0,0,1,.78-.78H46.37a.78.78,0,0,1,.78.78A.77.77,0,0,1,46.37,12.46Z"/><path class="cls-1" d="M13.3,8.74a2.47,2.47,0,1,1,2.46-2.46A2.46,2.46,0,0,1,13.3,8.74Zm0-3.37a.91.91,0,1,0,.91.91A.91.91,0,0,0,13.3,5.37Z"/><path class="cls-1" d="M5.73,8.72A2.47,2.47,0,1,1,8.19,6.25,2.47,2.47,0,0,1,5.73,8.72Zm0-3.37a.91.91,0,1,0,.91.9A.9.9,0,0,0,5.73,5.35Z"/><path class="cls-1" d="M20.87,8.76A2.46,2.46,0,1,1,23.33,6.3,2.46,2.46,0,0,1,20.87,8.76Zm0-3.37a.91.91,0,1,0,.9.91A.91.91,0,0,0,20.87,5.39Z"/></g></g></svg>