<svg xmlns="http://www.w3.org/2000/svg" viewBox="0 0 22.47 22.47"><defs><style>.cls-1{fill:#fff;}</style></defs><g id="Capa_2" data-name="Capa 2"><g id="Capa_1-2" data-name="Capa 1"><g id="post-linkedin"><path class="cls-1" d="M20.49,0H2A2,2,0,0,0,0,2V20.49a2,2,0,0,0,2,2H20.49a2,2,0,0,0,2-2V2A2,2,0,0,0,20.49,0ZM6.74,19.1H3.37V9H6.74ZM6.55,6.55a2.12,2.12,0,0,1-3-3A2.12,2.12,0,0,1,6.55,6.55ZM19.1,19.1H15.73v-6a1.69,1.69,0,0,0-3.37,0v6H9V9h3.37v1.35a3.62,3.62,0,0,1,2.81-1.58,4,4,0,0,1,3.93,3.93Z"/></g></g></g></svg>