<svg xmlns="http://www.w3.org/2000/svg" viewBox="0 0 45 44.99"><defs><style>.cls-1{fill:#fff;}</style></defs><g id="Capa_2" data-name="Capa 2"><g id="Capa_1-2" data-name="Capa 1"><path class="cls-1" d="M18.76,3A15.75,15.75,0,1,0,34.5,18.75,15.74,15.74,0,0,0,18.76,3Zm0,1.5a14.21,14.21,0,0,1,11.63,6.05l-1.87,1.88A2.9,2.9,0,0,0,27,12a3,3,0,0,0-2.58,4.51l-4.91,4.91a2.88,2.88,0,0,0-3,0L13.09,18a3,3,0,1,0-5.47-2.26H4.84A14.26,14.26,0,0,1,18.76,4.5ZM28.51,15A1.5,1.5,0,1,1,27,13.5,1.51,1.51,0,0,1,28.51,15Zm-9,9a1.5,1.5,0,1,1-1.5-1.5A1.5,1.5,0,0,1,19.51,24ZM12,16.5a1.5,1.5,0,1,1-1.5-1.5A1.5,1.5,0,0,1,12,16.5ZM25.68,31.2A14.25,14.25,0,0,1,4.52,18.76a10.92,10.92,0,0,1,.08-1.51h3a3,3,0,0,0,2.89,2.24A2.9,2.9,0,0,0,12,19.07l3.41,3.41A2.9,2.9,0,0,0,15,24a3,3,0,1,0,6,0,2.9,2.9,0,0,0-.43-1.51l4.91-4.91a3,3,0,0,0,4.09-4.09l1.63-1.63A14.23,14.23,0,0,1,25.68,31.2Z"/><path class="cls-1" d="M37.5,7.5a3,3,0,0,0,2.9-2.25H45V3.75H40.4a3,3,0,0,0-5.9.75A3,3,0,0,0,34.93,6L33.61,7.33a18.74,18.74,0,1,0-4.68,27.15l2.26,2.26,1.06,1.06,6,6a3.93,3.93,0,0,0,5.56-5.55l-6-6-1.06-1.06-2.26-2.26a18.68,18.68,0,0,0,0-20.35L36,7.07A2.9,2.9,0,0,0,37.5,7.5Zm0-4.5A1.5,1.5,0,1,1,36,4.5,1.5,1.5,0,0,1,37.5,3Zm5.29,36.34a2.43,2.43,0,1,1-3.4,3.47l0,0-6-6,3.44-3.44Zm-7.1-7.1-3.44,3.44L30.18,33.6l.31-.25.34-.28.48-.42.24-.22c.31-.29.61-.59.89-.9l.23-.24c.14-.15.28-.32.42-.48l.28-.34c.08-.1.17-.2.25-.31Zm-2.9-3.48c-.24.33-.48.65-.74,1l-.23.27c-.23.27-.47.53-.71.78l-.33.32c-.25.25-.51.48-.78.71l-.26.23c-.31.26-.64.5-1,.74a17.25,17.25,0,1,1,4-4Z"/></g></g></svg>