<svg xmlns="http://www.w3.org/2000/svg" viewBox="0 0 27.09 27.2"><defs><style>.cls-1,.cls-2{fill:#fff;stroke:gray;stroke-linecap:round;stroke-width:0.5px;}.cls-1{stroke-linejoin:bevel;}.cls-2{stroke-linejoin:round;}</style></defs><g id="Capa_2" data-name="Capa 2"><g id="Capa_1-2" data-name="Capa 1"><path class="cls-1" d="M8.14,14.23a14.38,14.38,0,0,0,5.61,4.92c.75.32,1.35.52,1.88.69a4.52,4.52,0,0,0,1.38.21,5,5,0,0,0,.84-.07,3.7,3.7,0,0,0,2.53-1.82,2.87,2.87,0,0,0,.15-1.92,1.28,1.28,0,0,0-.63-.46l-.17-.09s-1.88-.93-2.24-1.06a.94.94,0,0,0-1.26.34c-.19.27-.75.94-1,1.23a.38.38,0,0,1-.14-.05L14.87,16a7.45,7.45,0,0,1-2.24-1.42,10.37,10.37,0,0,1-1.72-2.08l.07-.09.06-.07a11.5,11.5,0,0,0,.85-1.18,1,1,0,0,0,0-1c0-.1-.45-1.08-.62-1.49l-.35-.86C10.58,7.14,10.18,7,9.76,7H9.13a1.63,1.63,0,0,0-1.2.55l-.06.06a4.05,4.05,0,0,0-1.18,2.93,6.59,6.59,0,0,0,1.4,3.59Z"/><path class="cls-2" d="M23,4.11A13.17,13.17,0,0,0,2.19,19.88L.25,27l7.24-1.89a13.37,13.37,0,0,0,6.18,1.54A13.18,13.18,0,0,0,23,4.11ZM5.38,19.42,5,18.85a10.2,10.2,0,1,1,3.45,3.36l-.55-.33-3.46.91Z"/></g></g></svg>