<svg xmlns="http://www.w3.org/2000/svg" viewBox="0 0 247.35 64.11"><defs><style>.cls-1{opacity:0.3;}.cls-2{fill:#fff;}</style></defs><g id="Capa_2" data-name="Capa 2"><g id="Capa_1-2" data-name="Capa 1"><g class="cls-1"><path class="cls-2" d="M247.35,14.51v-4h-5V4.2l-.17,0-4.71,1.44-.1,0v4.75h-7.43V7.82a4.21,4.21,0,0,1,.82-2.8,2.87,2.87,0,0,1,2.3-.94,5.5,5.5,0,0,1,2.18.49l.18.09V.4l-.09,0A8.37,8.37,0,0,0,232.54,0a8.18,8.18,0,0,0-3.95,1,6.72,6.72,0,0,0-2.71,2.68,7.94,7.94,0,0,0-1,3.93v2.91h-3.49v4h3.49v17h5v-17h7.43V25.32c0,4.45,2.1,6.71,6.25,6.71a10.57,10.57,0,0,0,2.12-.23,6,6,0,0,0,1.55-.5l.07,0V27.19l-.2.13a3.35,3.35,0,0,1-1,.44,3.52,3.52,0,0,1-1,.17,2.66,2.66,0,0,1-2.13-.78,4.12,4.12,0,0,1-.68-2.7V14.51ZM210.23,27.93A5.3,5.3,0,0,1,206,26.14a7.59,7.59,0,0,1-1.53-5.06A7.88,7.88,0,0,1,206,15.89a5.22,5.22,0,0,1,4.22-1.82,5.13,5.13,0,0,1,4.11,1.74A7.72,7.72,0,0,1,215.81,21a8.23,8.23,0,0,1-1.42,5.21,5,5,0,0,1-4.16,1.76m.23-18c-3.48,0-6.23,1-8.2,3a11.35,11.35,0,0,0-3,8.25,10.72,10.72,0,0,0,2.89,7.88A10.5,10.5,0,0,0,210,32,10.72,10.72,0,0,0,218,29a11.35,11.35,0,0,0,3-8.17,11,11,0,0,0-2.78-7.94,10.2,10.2,0,0,0-7.7-2.89m-19.24,0a9.09,9.09,0,0,0-5.81,1.79,5.73,5.73,0,0,0-2.26,4.67,6.57,6.57,0,0,0,.49,2.61,5.16,5.16,0,0,0,1.5,2,12.85,12.85,0,0,0,3,1.7,22.74,22.74,0,0,1,2.54,1.18,3.5,3.5,0,0,1,1.11.92,2,2,0,0,1,.31,1.19c0,1.42-1.06,2.1-3.23,2.1a8.68,8.68,0,0,1-2.74-.5,9.91,9.91,0,0,1-2.81-1.42l-.21-.15v4.83l.08,0a11.82,11.82,0,0,0,2.66.82,14,14,0,0,0,2.83.33,9.64,9.64,0,0,0,6.13-1.8,5.84,5.84,0,0,0,2.29-4.78,5.53,5.53,0,0,0-1.23-3.62,10.63,10.63,0,0,0-4.17-2.66,10.8,10.8,0,0,1-3-1.54,2.2,2.2,0,0,1-.6-1.62,1.79,1.79,0,0,1,.76-1.5,3.44,3.44,0,0,1,2.14-.61,9.06,9.06,0,0,1,2.54.39,8.21,8.21,0,0,1,2.21,1l.21.14V10.88l-.08,0a10.54,10.54,0,0,0-2.25-.63,13.76,13.76,0,0,0-2.47-.25m-21.14,18a5.31,5.31,0,0,1-4.26-1.79,7.59,7.59,0,0,1-1.53-5.06,7.88,7.88,0,0,1,1.53-5.19A5.22,5.22,0,0,1,170,14.07a5.15,5.15,0,0,1,4.12,1.74,7.77,7.77,0,0,1,1.5,5.15,8.3,8.3,0,0,1-1.41,5.21,5,5,0,0,1-4.17,1.76m.23-18c-3.47,0-6.23,1-8.2,3a11.35,11.35,0,0,0-3,8.25A10.76,10.76,0,0,0,162,29.12,10.5,10.5,0,0,0,169.8,32a10.7,10.7,0,0,0,8-3.06,11.31,11.31,0,0,0,3-8.17A11,11,0,0,0,178,12.86a10.2,10.2,0,0,0-7.7-2.89m-18.77,4.15V10.47h-4.95v21h4.95V20.76a7.52,7.52,0,0,1,1.24-4.48,3.8,3.8,0,0,1,3.2-1.69,6,6,0,0,1,1.49.22,3.6,3.6,0,0,1,1.15.47l.21.15v-5l-.08,0a5.25,5.25,0,0,0-1.94-.29,5.08,5.08,0,0,0-3.31,1.19,6.73,6.73,0,0,0-1.9,2.82ZM137.73,10a12.19,12.19,0,0,0-6,1.44,9.81,9.81,0,0,0-4,4.09,13.06,13.06,0,0,0-1.36,6.05A11.16,11.16,0,0,0,127.7,27a9.34,9.34,0,0,0,3.7,3.75A11.08,11.08,0,0,0,136.81,32a11.84,11.84,0,0,0,6-1.4l.06,0V26.06l-.21.15a9.13,9.13,0,0,1-2.42,1.26,7.16,7.16,0,0,1-2.37.46,6.15,6.15,0,0,1-4.64-1.8,7.06,7.06,0,0,1-1.71-5A7.28,7.28,0,0,1,133.29,16a6.06,6.06,0,0,1,4.64-1.91,7.93,7.93,0,0,1,4.71,1.64l.21.15V11.08l-.07,0a8,8,0,0,0-2.29-.78,14.16,14.16,0,0,0-2.76-.29m-14.77.5H118v21H123v-21Zm-2.42-9a3,3,0,0,0-2.11.82,2.75,2.75,0,0,0-.89,2.07,2.64,2.64,0,0,0,.88,2,3,3,0,0,0,2.12.81,3,3,0,0,0,2.12-.81,2.61,2.61,0,0,0,.89-2,2.77,2.77,0,0,0-.86-2,2.93,2.93,0,0,0-2.15-.85M108.18,8.92v22.6h5V2.15h-7L97.35,24,88.72,2.15H81.45V31.52h4.74V8.92h.17l9.11,22.6h3.58l9-22.6Z"/><path class="cls-2" d="M29.78,31.22H0V1.44H29.78Z"/><path class="cls-2" d="M62.66,31.22H32.88V1.44H62.66V31.22Z"/><path class="cls-2" d="M29.78,64.11H0V34.33H29.78Z"/><path class="cls-2" d="M62.66,64.11H32.88V34.33H62.66V64.11Z"/><path class="cls-2" d="M84.58,54.79v6.66h-3V43.07h5.58A7.35,7.35,0,0,1,92,44.55a5.13,5.13,0,0,1,1.74,4.15A5.73,5.73,0,0,1,92,53.08,6.88,6.88,0,0,1,87,54.79Zm0-9.21V52.3h2a4.34,4.34,0,0,0,3-.91,3.23,3.23,0,0,0,1-2.56c0-2.16-1.26-3.25-3.77-3.25Z"/><path class="cls-2" d="M105.87,61.45H103V59.4h0a4.34,4.34,0,0,1-4,2.36,4.2,4.2,0,0,1-3-1,3.68,3.68,0,0,1-1.1-2.78q0-3.72,4.28-4.33L103,53c0-1.87-.89-2.8-2.67-2.8a6.38,6.38,0,0,0-4.23,1.61v-2.6A9.27,9.27,0,0,1,100.9,48q5,0,5,4.9ZM103,55l-2.75.38a4.37,4.37,0,0,0-1.93.62,1.81,1.81,0,0,0-.65,1.6A1.76,1.76,0,0,0,98.26,59a2.3,2.3,0,0,0,1.6.54,2.93,2.93,0,0,0,2.25-1,3.41,3.41,0,0,0,.89-2.4Z"/><path class="cls-2" d="M117.11,51.16a2.45,2.45,0,0,0-1.55-.42,2.63,2.63,0,0,0-2.2,1.19,5.32,5.32,0,0,0-.89,3.24v6.28h-3V48.33h3V51h0a4.7,4.7,0,0,1,1.34-2.16,3.08,3.08,0,0,1,2-.77,2.53,2.53,0,0,1,1.23.24Z"/><path class="cls-2" d="M126.89,61.31a5.13,5.13,0,0,1-2.29.44q-3.82,0-3.82-3.67V50.66h-2.19V48.33h2.19v-3l3-.85v3.89h3.14v2.33h-3.14v6.56a2.54,2.54,0,0,0,.43,1.67,1.76,1.76,0,0,0,1.41.5,2,2,0,0,0,1.3-.44Z"/><path class="cls-2" d="M141.15,61.45h-3V54.06c0-2.46-.86-3.68-2.6-3.68a2.84,2.84,0,0,0-2.24,1,3.77,3.77,0,0,0-.89,2.57v7.48h-3V48.33h3v2.18h.06A4.67,4.67,0,0,1,136.75,48,4,4,0,0,1,140,49.41a6.27,6.27,0,0,1,1.13,4Z"/><path class="cls-2" d="M155.89,55.7h-8.95a3.83,3.83,0,0,0,1.12,2.81,4.24,4.24,0,0,0,2.95,1,6.51,6.51,0,0,0,3.85-1.25v2.39a8.71,8.71,0,0,1-4.74,1.13A5.83,5.83,0,0,1,145.58,60a7.14,7.14,0,0,1-1.65-5,7,7,0,0,1,1.81-5A5.92,5.92,0,0,1,150.25,48a5.21,5.21,0,0,1,4.17,1.73,7.2,7.2,0,0,1,1.47,4.81ZM153,53.6a3.84,3.84,0,0,0-.76-2.5,2.53,2.53,0,0,0-2-.89,2.86,2.86,0,0,0-2.17.94,4.25,4.25,0,0,0-1.1,2.45Z"/><path class="cls-2" d="M166.34,51.16a2.49,2.49,0,0,0-1.55-.42,2.64,2.64,0,0,0-2.21,1.19,5.32,5.32,0,0,0-.88,3.24v6.28h-3V48.33h3V51h.05a4.54,4.54,0,0,1,1.34-2.16,3,3,0,0,1,2-.77,2.58,2.58,0,0,1,1.23.24Z"/></g></g></g></svg>