<svg xmlns="http://www.w3.org/2000/svg" viewBox="0 0 37.14 45.05"><defs><style>.cls-1{fill:#fff;}</style></defs><g id="Capa_2" data-name="Capa 2"><g id="Capa_1-2" data-name="Capa 1"><path class="cls-1" d="M36.87,11.16,26,.27A.93.93,0,0,0,25.33,0H4.47A4.47,4.47,0,0,0,0,4.47V40.58a4.47,4.47,0,0,0,4.47,4.47h28.2a4.47,4.47,0,0,0,4.47-4.47V11.81A.93.93,0,0,0,36.87,11.16Zm-10.62-8L34,10.89H28.88a2.63,2.63,0,0,1-2.63-2.63Zm9,37.44a2.63,2.63,0,0,1-2.63,2.63H4.47a2.63,2.63,0,0,1-2.63-2.63V4.47A2.63,2.63,0,0,1,4.47,1.84H24.41V8.26a4.47,4.47,0,0,0,4.47,4.47H35.3V40.58Z"/><path class="cls-1" d="M20.25,30.93h-.41a.92.92,0,0,0,0,1.84h.41a.92.92,0,0,0,0-1.84Z"/><path class="cls-1" d="M16.86,30.93H7.93a.92.92,0,0,0,0,1.84h8.93a.92.92,0,0,0,0-1.84Z"/><path class="cls-1" d="M29.21,26.73H7.93a.92.92,0,1,0,0,1.83H29.21a.92.92,0,1,0,0-1.83Z"/><path class="cls-1" d="M29.21,22.52H7.93a.92.92,0,1,0,0,1.84H29.21a.92.92,0,1,0,0-1.84Z"/><path class="cls-1" d="M29.21,18.32H7.93a.92.92,0,0,0,0,1.84H29.21a.92.92,0,0,0,0-1.84Z"/></g></g></svg>