<svg xmlns="http://www.w3.org/2000/svg" viewBox="0 0 28.68 21.32"><defs><style>.cls-1{fill:#fff;stroke:gray;stroke-linecap:round;stroke-linejoin:round;stroke-width:0.5px;}</style></defs><g id="Capa_2" data-name="Capa 2"><g id="Capa_1-2" data-name="Capa 1"><path class="cls-1" d="M24.62.25H4.06A3.82,3.82,0,0,0,.25,4.06v13.2a3.82,3.82,0,0,0,3.81,3.81H24.62a3.82,3.82,0,0,0,3.81-3.81V4.06A3.82,3.82,0,0,0,24.62.25ZM3.16,5l10.29,8a1.5,1.5,0,0,0,1.78,0L25.52,5V17.26a.9.9,0,0,1-.9.9H4.06a.9.9,0,0,1-.9-.9ZM5.58,3.16H23.1L14.34,9.93Z"/></g></g></svg>