<svg xmlns="http://www.w3.org/2000/svg" viewBox="0 0 26.84 41.67"><defs><style>.cls-1{fill:#fff;}</style></defs><g id="Capa_2" data-name="Capa 2"><g id="Capa_1-2" data-name="Capa 1"><path class="cls-1" d="M13.42,22.64A1.4,1.4,0,1,0,12,21.25,1.4,1.4,0,0,0,13.42,22.64Z"/><polygon class="cls-1" points="6.4 27.37 13.44 34.81 20.45 27.37 18.41 25.45 13.44 30.74 8.43 25.45 6.4 27.37"/><path class="cls-1" d="M13.42,16.05A1.4,1.4,0,1,0,12,14.66,1.4,1.4,0,0,0,13.42,16.05Z"/><path class="cls-1" d="M13.42,9.47A1.4,1.4,0,1,0,12,8.07,1.4,1.4,0,0,0,13.42,9.47Z"/><path class="cls-1" d="M17.21,0H9.63A9.64,9.64,0,0,0,0,9.63V32a9.64,9.64,0,0,0,9.63,9.63h7.58A9.64,9.64,0,0,0,26.84,32V9.63A9.64,9.64,0,0,0,17.21,0Zm6.84,32a6.84,6.84,0,0,1-6.84,6.83H9.63A6.84,6.84,0,0,1,2.79,32V9.63A6.85,6.85,0,0,1,9.63,2.79h7.58a6.85,6.85,0,0,1,6.84,6.84Z"/></g></g></svg>