<svg xmlns="http://www.w3.org/2000/svg" viewBox="0 0 317.59 92.13"><defs><style>.cls-1{fill:gray;}</style></defs><g id="Capa_2" data-name="Capa 2"><g id="Capa_1-2" data-name="Capa 1"><path class="cls-1" d="M136,61H116.22l-2.83,7H102.75l18-44.28h10.63l18,44.28h-10.7ZM132.66,53l-6.58-16.17L119.51,53Z"/><path class="cls-1" d="M174,33.89v7.92c-7,0-11.41,4-11.41,10.25V68h-9.41V34.66h9.41v6.19A12.43,12.43,0,0,1,174,33.89Z"/><path class="cls-1" d="M197.57,49.42,210.4,68H199.57l-8.25-12.5-4,4.32V68h-9.41V22.93h9.41V49L199.7,34.66h10.82Z"/><path class="cls-1" d="M243.14,48.07V68h-9.09V64.63a13.21,13.21,0,0,1-9.79,4.13c-7.09,0-12.57-4.26-12.57-10.64,0-6.57,6.12-11.08,13.85-11.08a24.13,24.13,0,0,1,8.51,1.67v-.64c0-3.55-2.19-6.64-7.67-6.64a19.06,19.06,0,0,0-8.63,2.38l-3.16-6.25a30.61,30.61,0,0,1,13.92-3.67C237.21,33.89,243.14,39.37,243.14,48.07Zm-9.09,9.41v-3.1a21.1,21.1,0,0,0-7.15-1.22c-3.42,0-6.12,2-6.12,4.7s2.38,4.39,5.6,4.39C230,62.25,233.41,60.57,234.05,57.48Z"/><path class="cls-1" d="M281.43,46.78V68h-9.09V48.78c0-4.13-2.58-7-6.32-7-3.93,0-7,2.84-7,6.45l-.06-.19V68h-9.41V34.66H259v4.19a11.87,11.87,0,0,1,10.05-5C276.27,33.89,281.43,39.24,281.43,46.78Z"/><path class="cls-1" d="M317.59,48.07V68H308.5V64.63a13.22,13.22,0,0,1-9.79,4.13c-7.09,0-12.57-4.26-12.57-10.64C286.14,51.55,292.26,47,300,47a24.13,24.13,0,0,1,8.51,1.67v-.64c0-3.55-2.19-6.64-7.67-6.64a19.06,19.06,0,0,0-8.63,2.38L289,37.56A30.61,30.61,0,0,1,303,33.89C311.66,33.89,317.59,39.37,317.59,48.07Zm-9.09,9.41v-3.1a21.1,21.1,0,0,0-7.15-1.22c-3.42,0-6.13,2-6.13,4.7s2.39,4.39,5.61,4.39C304.44,62.25,307.86,60.57,308.5,57.48Z"/><path class="cls-1" d="M34.68,54.28l.06,0a2.16,2.16,0,0,0,2.85-1.1,2.12,2.12,0,0,0,0-1.64,2.21,2.21,0,0,0-2.84-1.22,2.13,2.13,0,0,0-1.18,1.14A2.17,2.17,0,0,0,34.68,54.28Z"/><path class="cls-1" d="M92.65,47.16c-.44.5-.94,1.08-1.5,1.7-2.71,3-6.7,7.13-9.89,8.79l-.16.08-.38.18a9.4,9.4,0,0,1-1,.39,1.77,1.77,0,0,1-.53,0c.75-2,1.48-4,2.2-6a.41.41,0,0,0-.19-.5,4,4,0,0,0-3.73,0,3.19,3.19,0,0,1-3.79-1.4S69.92,43,69.3,40.85s2.47-3.51.26-7.76L66.41,36.2a1.56,1.56,0,0,1-.35.27,4.4,4.4,0,0,1-3.43.26C51.89,33.8,42.24,31.25,31.5,28.32a4.26,4.26,0,0,0-3.59.47q-10.23,6-20.58,11.87a5.22,5.22,0,0,1-2.56.69H2.58a12.17,12.17,0,0,1,3.06-6.62C16,23.35,34.43,4.39,43.91,2.6a7,7,0,0,1,1.23-.11c2.2,0,4.86.95,7.79,2.56l-9.87,10.8a5.31,5.31,0,0,0-.85-.45,4.29,4.29,0,0,0-5.58,2.38A4.19,4.19,0,0,0,36.72,21,4.37,4.37,0,0,0,39,23.26l.13,0a4.31,4.31,0,0,0,3.31,0,4.16,4.16,0,0,0,2.07-5.78l11-10.88c10.4,6.68,23.23,20,31.05,28.64A12.14,12.14,0,0,1,89,47.59c.78-.66,1.81-1.58,3.17-2.84a14.63,14.63,0,0,0-3.71-11.17A263.43,263.43,0,0,0,67.32,12.52C57.61,4.1,50.36,0,45.14,0h0a9.35,9.35,0,0,0-1.7.15c-4.69.89-11.23,5.17-20,13.07C16.13,19.8,8.73,27.65,3.8,33.07a14.69,14.69,0,0,0,.27,20L37.28,87.63a14.63,14.63,0,0,0,21.59-.52L68.59,76l-2.2-1.27L57,85.47l-.13.15c-.49-4.57.5-9.94-.1-14.71-.22.14-4,3.82-5.72,5.42a3.06,3.06,0,0,1-1.84.85L37,78.37s3.39,5.23,7,10.63a12.2,12.2,0,0,1-4.87-3.09L19.75,65.8l-.35-.36L31.68,54.08a4.16,4.16,0,0,1,2.26-5.71,4.41,4.41,0,0,1,3.31.06l.12.06a4.37,4.37,0,0,1,2.21,2.29,4.22,4.22,0,0,1,0,3.27,4.31,4.31,0,0,1-6.49,1.71L21.51,67.63l9.19,9.56c3.68-.28,14.2-1.22,17.57-1.52a3.05,3.05,0,0,0,1.83-.82c1.4-1.31,4.34-4.11,6.08-6.11a1.54,1.54,0,0,0,.24-2.13c-1.36-2.28-6.24-12.2-7.23-14.22a.43.43,0,0,1,.75-.4c1.07,1.86,6.11,10.5,8.49,14.54A4.94,4.94,0,0,0,60,68.14q3,1.81,6,3.62l2,1.18,2.17,1.29,4,2.33a1.55,1.55,0,0,0,.46.15,1.44,1.44,0,0,0,.86-.13,39.81,39.81,0,0,0,11-8.51A32.23,32.23,0,0,0,94.09,51c.14-1.16.2-2.23.22-3.2A1,1,0,0,0,92.65,47.16Zm-49.95-27a2.1,2.1,0,0,1-1.14,1.18,2.24,2.24,0,0,1-1.67,0,2.2,2.2,0,0,1-1.21-1.15,2.12,2.12,0,0,1,0-1.64,2.16,2.16,0,0,1,2.81-1.19l.07,0A2.16,2.16,0,0,1,42.7,20.15Zm27,36.07a2.18,2.18,0,0,1,1.1-3.12c.81,1.41,1.57,2.75,2.39,4.19C71.34,57.93,70.23,57.51,69.66,56.22Z"/><path class="cls-1" d="M70.83,41s1.5,3.21,1.93,4.07c0-2,3-3.89.83-8l-2.4,2.36A1.53,1.53,0,0,0,70.83,41Z"/></g></g></svg>