<svg xmlns="http://www.w3.org/2000/svg" viewBox="0 0 290.43 84.25"><defs><style>.cls-1{fill:#606060;}</style></defs><g id="Capa_2" data-name="Capa 2"><g id="Capa_1-2" data-name="Capa 1"><path class="cls-1" d="M124.32,55.8h-18l-2.6,6.37H94l16.5-40.5h9.73l16.5,40.5h-9.78Zm-3-7.36-6-14.8-6,14.8Z"/><path class="cls-1" d="M159.1,31v7.25c-6.36,0-10.43,3.65-10.43,9.37V62.17h-8.61V31.69h8.61v5.66A11.35,11.35,0,0,1,159.1,31Z"/><path class="cls-1" d="M180.68,45.19l11.73,17H182.5L175,50.73l-3.66,4v7.49h-8.6V21h8.6V44.84l11.32-13.15h9.9Z"/><path class="cls-1" d="M222.35,44V62.17H214V59.1a12.1,12.1,0,0,1-9,3.78c-6.48,0-11.49-3.89-11.49-9.73,0-6,5.59-10.14,12.67-10.14A22,22,0,0,1,214,44.54V44c0-3.25-2-6.08-7-6.08a17.49,17.49,0,0,0-7.89,2.18l-2.89-5.71A28,28,0,0,1,209,31C216.93,31,222.35,36,222.35,44ZM214,52.56V49.73a19.25,19.25,0,0,0-6.54-1.12c-3.13,0-5.6,1.83-5.6,4.3s2.18,4,5.12,4C210.33,56.92,213.45,55.39,214,52.56Z"/><path class="cls-1" d="M257.36,42.78V62.17h-8.31V44.6c0-3.77-2.35-6.36-5.77-6.36a6.06,6.06,0,0,0-6.37,5.89l-.06-.17V62.17h-8.6V31.69h8.6v3.84a10.87,10.87,0,0,1,9.2-4.54C252.65,31,257.36,35.88,257.36,42.78Z"/><path class="cls-1" d="M290.43,44V62.17h-8.31V59.1a12.1,12.1,0,0,1-9,3.78c-6.48,0-11.49-3.89-11.49-9.73,0-6,5.6-10.14,12.67-10.14a22,22,0,0,1,7.78,1.53V44c0-3.25-2-6.08-7-6.08a17.53,17.53,0,0,0-7.9,2.18l-2.89-5.71A28,28,0,0,1,277.05,31C285,31,290.43,36,290.43,44Zm-8.31,8.6V49.73a19.17,19.17,0,0,0-6.54-1.12c-3.12,0-5.6,1.83-5.6,4.3s2.18,4,5.13,4C278.41,56.92,281.53,55.39,282.12,52.56Z"/><path class="cls-1" d="M31.71,49.64l.06,0a2,2,0,0,0,2.6-1,1.91,1.91,0,0,0,0-1.5A2,2,0,0,0,31.78,46a1.93,1.93,0,0,0-1.08,1A2,2,0,0,0,31.71,49.64Z"/><path class="cls-1" d="M84.72,43.13l-1.37,1.55c-2.47,2.76-6.12,6.52-9,8l-.15.08-.34.16c-.3.13-.6.26-.91.36a1.93,1.93,0,0,1-.5,0c.69-1.86,1.37-3.69,2-5.46a.37.37,0,0,0-.17-.45,3.72,3.72,0,0,0-3.42,0,2.9,2.9,0,0,1-3.46-1.27s-3.44-6.82-4-8.8,2.25-3.2.23-7.09c-.89.87-2.44,2.41-2.87,2.84a1.59,1.59,0,0,1-.33.25,4,4,0,0,1-3.13.24c-9.83-2.68-18.65-5-28.48-7.69a3.86,3.86,0,0,0-3.27.43Q16.17,31.85,6.71,37.19a4.85,4.85,0,0,1-2.35.62h-2a11.07,11.07,0,0,1,2.8-6.05C14.63,21.35,31.48,4,40.15,2.38a5.94,5.94,0,0,1,1.13-.1A15.73,15.73,0,0,1,48.4,4.62l-9,9.88a4.35,4.35,0,0,0-.77-.42,3.92,3.92,0,0,0-5.1,2.18,3.81,3.81,0,0,0,.08,3,4,4,0,0,0,2.09,2l.11.05a4,4,0,0,0,3,0A3.83,3.83,0,0,0,40.71,16L50.79,6C60.3,12.15,72,24.34,79.18,32.24a11.1,11.1,0,0,1,2.18,11.28c.71-.61,1.66-1.45,2.9-2.6a13.39,13.39,0,0,0-3.39-10.21A240.07,240.07,0,0,0,61.56,11.45C52.68,3.75,46.05,0,41.28,0h0a8.59,8.59,0,0,0-1.55.14c-4.29.81-10.28,4.72-18.3,12-6.68,6-13.45,13.19-18,18.15a13.45,13.45,0,0,0,.25,18.3l30.37,31.6a13.4,13.4,0,0,0,19.75-.48l8.89-10.19-2-1.16-8.6,9.85L52,78.3c-.44-4.18.47-9.09-.08-13.45-.2.13-3.7,3.49-5.23,5a2.84,2.84,0,0,1-1.69.77L33.81,71.67s3.1,4.78,6.37,9.72a11,11,0,0,1-4.45-2.83L18.06,60.18l-.32-.34L29,49.46A3.81,3.81,0,0,1,31,44.23a4,4,0,0,1,3,.06l.12.05a4,4,0,0,1,2,2.1,3.83,3.83,0,0,1,0,3,3.93,3.93,0,0,1-5.17,2,5.13,5.13,0,0,1-.76-.43L19.67,61.85l8.4,8.74c3.37-.26,13-1.12,16.07-1.39a2.85,2.85,0,0,0,1.68-.75c1.28-1.2,4-3.76,5.55-5.59a1.39,1.39,0,0,0,.23-1.94c-1.25-2.09-5.71-11.16-6.62-13a.39.39,0,0,1,.69-.36c1,1.69,5.58,9.6,7.76,13.29a4.43,4.43,0,0,0,1.42,1.47q2.71,1.66,5.46,3.31l1.81,1.08,2,1.19L67.73,70a1.33,1.33,0,0,0,1.21,0,36.11,36.11,0,0,0,10-7.79A29.3,29.3,0,0,0,86,46.63a26.22,26.22,0,0,0,.2-2.92A.86.86,0,0,0,84.72,43.13ZM39.05,18.43a1.87,1.87,0,0,1-1,1.07,2,2,0,0,1-1.52,0,2,2,0,0,1-1.11-1,2,2,0,0,1,0-1.5,2,2,0,0,1,2.57-1.1l.06,0A2,2,0,0,1,39.05,18.43Zm24.65,33a2,2,0,0,1,1-2.85c.74,1.29,1.43,2.52,2.18,3.83C65.24,53,64.22,52.59,63.7,51.41Z"/><path class="cls-1" d="M64.77,37.45s1.37,2.94,1.77,3.72c0-1.87,2.73-3.55.76-7.35L65.1,36A1.42,1.42,0,0,0,64.77,37.45Z"/></g></g></svg>