<svg xmlns="http://www.w3.org/2000/svg" viewBox="0 0 45.97 48.42"><defs><style>.cls-1{fill:#fff;}</style></defs><g id="Capa_2" data-name="Capa 2"><g id="Capa_1-2" data-name="Capa 1"><path class="cls-1" d="M43.09,8,19.78.22a4.22,4.22,0,0,0-5.34,2.66l-.31.92a.86.86,0,0,0,1.64.55l.31-.92a2.49,2.49,0,0,1,3.15-1.57L42.54,9.68a2.48,2.48,0,0,1,1.57,3.15L33.26,45.17a.87.87,0,0,0,1.65.56L45.75,13.38A4.22,4.22,0,0,0,43.09,8Z"/><path class="cls-1" d="M28.81,5.87H4.22A4.22,4.22,0,0,0,0,10.09V44.2a4.22,4.22,0,0,0,4.22,4.22H28.81A4.22,4.22,0,0,0,33,44.2V10.09A4.22,4.22,0,0,0,28.81,5.87ZM31.3,44.2a2.49,2.49,0,0,1-2.49,2.49H4.22A2.49,2.49,0,0,1,1.73,44.2V10.09A2.5,2.5,0,0,1,4.22,7.6H28.81a2.5,2.5,0,0,1,2.49,2.49V44.2Z"/><path class="cls-1" d="M29.26,29.75H3.77a.87.87,0,1,0,0,1.73H29.26a.87.87,0,1,0,0-1.73Z"/><path class="cls-1" d="M25.23,34.7H14.51a.87.87,0,0,0,0,1.73H25.23a.87.87,0,0,0,0-1.73Z"/><path class="cls-1" d="M11.63,34.7H7.8a.87.87,0,0,0,0,1.73h3.83a.87.87,0,0,0,0-1.73Z"/><path class="cls-1" d="M25.23,38H7.8a.87.87,0,0,0,0,1.73H25.23a.87.87,0,0,0,0-1.73Z"/><path class="cls-1" d="M25.23,41.32H7.8a.87.87,0,0,0,0,1.73H25.23a.87.87,0,0,0,0-1.73Z"/><path class="cls-1" d="M26,15.91a.9.9,0,0,0-.7-.59l-5.55-.81-2.49-5A.86.86,0,0,0,16.52,9a.88.88,0,0,0-.78.48l-2.48,5-5.56.81a.88.88,0,0,0-.48,1.48l4,3.91-1,5.53a.88.88,0,0,0,.86,1,1,1,0,0,0,.4-.1l5-2.62,5,2.62a.87.87,0,0,0,1.26-.92l-.95-5.53,4-3.91A.89.89,0,0,0,26,15.91Zm-5.77,3.88a.85.85,0,0,0-.25.77l.73,4.25-3.82-2a.89.89,0,0,0-.81,0l-3.81,2L13,20.56a.91.91,0,0,0-.25-.77l-3.09-3L14,16.16a.88.88,0,0,0,.65-.47l1.91-3.87,1.9,3.87a.88.88,0,0,0,.66.47l4.26.62Z"/></g></g></svg>