<svg xmlns="http://www.w3.org/2000/svg" viewBox="0 0 45 45"><defs><style>.cls-1{fill:#fff;}</style></defs><g id="Capa_2" data-name="Capa 2"><g id="Capa_1-2" data-name="Capa 1"><path class="cls-1" d="M.88,43.24A.88.88,0,1,0,.88,45h38a.88.88,0,0,0,0-1.76H32.7v-.88c0-1.48-1.71-2.63-3.17-2.63H26.89V19.34h7.56V22a.88.88,0,0,0,.88.88h8.79a.86.86,0,0,0,.79-.5.88.88,0,0,0-.1-.93l-3.08-3.84,3.08-3.85a.88.88,0,0,0-.69-1.43H36.21V9.67a.87.87,0,0,0-.88-.88H26a.87.87,0,0,0-.88.88V39.73H22a2.63,2.63,0,0,0-2.63,2.63v.88H14.06V29.88H16.7a.88.88,0,0,0,.88-.88V19.34A8.79,8.79,0,0,0,0,19.34V29a.87.87,0,0,0,.88.88H3.52V43.24ZM42.29,14.06l-2.37,3a.87.87,0,0,0,0,1.1l2.37,3H36.21v-7Zm-15.4-3.51h7.56v7H26.89Zm-5.8,31.81a.89.89,0,0,1,.88-.88h7.56c.64,0,1.41.54,1.41.88v.88H21.09ZM1.76,28.12V19.34a7,7,0,1,1,14.06,0v8.78H13.18a.89.89,0,0,0-.88.88V43.24H9.67V32.52a.88.88,0,1,0-1.76,0V43.24H5.27V29a.88.88,0,0,0-.88-.88Z"/><path class="cls-1" d="M14.06,5.27a5.27,5.27,0,1,0-5.27,5.28A5.28,5.28,0,0,0,14.06,5.27ZM8.79,8.79A3.52,3.52,0,1,1,12.3,5.27,3.53,3.53,0,0,1,8.79,8.79Z"/></g></g></svg>