<svg xmlns="http://www.w3.org/2000/svg" viewBox="0 0 347.67 91.71"><defs><style>.cls-1{fill:gray;}</style></defs><g id="Capa_2" data-name="Capa 2"><g id="Capa_1-2" data-name="Capa 1"><path class="cls-1" d="M40.8,87.92l-.29-.17Z"/><path class="cls-1" d="M41.34,88.19,41,88Z"/><path class="cls-1" d="M40.28,87.62l-.3-.19Z"/><path class="cls-1" d="M39.76,87.29l-.29-.21Z"/><path class="cls-1" d="M41.89,88.43l-.3-.13Z"/><path class="cls-1" d="M43.58,89l-.3-.08Z"/><path class="cls-1" d="M42.44,88.64l-.3-.12Z"/><path class="cls-1" d="M43,88.82l-.3-.1Z"/><path class="cls-1" d="M53.34,87l-.23.16Z"/><path class="cls-1" d="M53.83,86.61l-.2.17Z"/><path class="cls-1" d="M39.26,86.93,39,86.7Z"/><path class="cls-1" d="M2.53,45.82c0-.36-.09-.72-.11-1.08C2.44,45.1,2.48,45.46,2.53,45.82Z"/><path class="cls-1" d="M38.78,86.55l-.32-.28Z"/><path class="cls-1" d="M54.32,86.19l-.19.17Z"/><path class="cls-1" d="M3.25,48.45a12,12,0,0,1-.39-1.15A12,12,0,0,0,3.25,48.45Z"/><path class="cls-1" d="M50.06,88.7l-.27.09Z"/><path class="cls-1" d="M51.2,88.26l-.26.11Z"/><path class="cls-1" d="M50.63,88.5l-.26.09Z"/><path class="cls-1" d="M44.16,89.09,43.85,89Z"/><path class="cls-1" d="M52.82,87.36l-.23.15Z"/><path class="cls-1" d="M48.88,89l-.27.06Z"/><path class="cls-1" d="M51.75,88l-.25.12Z"/><path class="cls-1" d="M52.29,87.69l-.24.14Z"/><path class="cls-1" d="M49.47,88.88,49.2,89Z"/><path class="cls-1" d="M45.32,89.25l-.31,0Z"/><path class="cls-1" d="M45.9,89.29l-.3,0Z"/><path class="cls-1" d="M44.74,89.19l-.31,0Z"/><path class="cls-1" d="M47.69,89.22l-.28,0Z"/><path class="cls-1" d="M46.35,89.3h0Z"/><path class="cls-1" d="M48.29,89.14l-.28,0Z"/><path class="cls-1" d="M47.09,89.27l-.29,0Z"/><path class="cls-1" d="M38.31,86.13c-.15-.14-.31-.29-.45-.45C38,85.84,38.16,86,38.31,86.13Z"/><path class="cls-1" d="M85.48,38.83a11.72,11.72,0,0,0-1.59-2.22h0A11.72,11.72,0,0,1,85.48,38.83Z"/><path class="cls-1" d="M58.3,81.74l-1.47,1.69-1.48,1.68-.13.15,0,0,0,0,28.8-33a11.79,11.79,0,0,0,2.91-7.85A11.79,11.79,0,0,1,84,52.24Z"/><path class="cls-1" d="M54.78,85.74l-.16.16Z"/><path class="cls-1" d="M85.72,39.31a11.69,11.69,0,0,1,.61,1.47A11.69,11.69,0,0,0,85.72,39.31Z"/><path class="cls-1" d="M2.49,42.58a12,12,0,0,0-.07,2.16A12,12,0,0,1,2.49,42.58Z"/><path class="cls-1" d="M86.81,42.83c0,.34.08.69.1,1C86.89,43.52,86.86,43.17,86.81,42.83Z"/><path class="cls-1" d="M2.86,47.3c-.09-.31-.17-.63-.24-.94C2.69,46.67,2.77,47,2.86,47.3Z"/><path class="cls-1" d="M4.58,50.88c-.22-.31-.42-.62-.61-.94C4.16,50.26,4.36,50.57,4.58,50.88Z"/><path class="cls-1" d="M47.41,89.25l-.32,0Z"/><path class="cls-1" d="M46.8,89.29h0Z"/><path class="cls-1" d="M45.6,89.27l-.28,0Z"/><path class="cls-1" d="M45,89.22l-.27,0Z"/><path class="cls-1" d="M46.19,89.3h0Z"/><path class="cls-1" d="M48.61,89.08l-.32.06Z"/><path class="cls-1" d="M49.79,88.79l-.32.09Z"/><path class="cls-1" d="M50.94,88.37l-.31.13Z"/><path class="cls-1" d="M54.13,86.36l-.3.25Z"/><path class="cls-1" d="M51.5,88.11l-.3.15Z"/><path class="cls-1" d="M48,89.18l-.32,0Z"/><path class="cls-1" d="M49.2,89l-.32.07Z"/><path class="cls-1" d="M52.59,87.51l-.3.18Z"/><path class="cls-1" d="M52.05,87.83l-.3.16Z"/><path class="cls-1" d="M50.37,88.59l-.31.11Z"/><path class="cls-1" d="M55.2,85.29l-.42.45Z"/><path class="cls-1" d="M39.47,87.08l-.21-.15Z"/><path class="cls-1" d="M39,86.7l-.19-.15Z"/><path class="cls-1" d="M44.43,89.14l-.27,0Z"/><path class="cls-1" d="M40.51,87.75l-.23-.13Z"/><path class="cls-1" d="M66,12.06a.71.71,0,0,0-.62-.71C56.29,10.43,53,1.24,53,1.24A29.85,29.85,0,0,0,44.57,0a20.65,20.65,0,0,0-6,.83A10.9,10.9,0,0,0,32.83,5.1a13,13,0,0,0-1.62,3.14,14.33,14.33,0,0,0-.77,3.62c0,.39-.05.79-.05,1.19,0,0,.22,10.52.24,13.53h0l.06,3.78s-3.46,28.25-4.46,43.2L37.86,85.68c.14.16.3.31.45.45l.15.14.32.28.19.15.29.23.21.15.29.21.22.14.3.19.23.13.29.17L41,88l.3.15.25.11.3.13.25.09.3.12.27.08.3.1.27.07.3.08.27.06.31.06.27,0,.31,0,.27,0,.31,0,.28,0,.3,0h.9l.29,0,.32,0,.28,0,.32,0,.28,0,.32-.06.27-.06L49.2,89l.27-.07.32-.09.27-.09.31-.11.26-.09.31-.13.26-.11.3-.15.25-.12.3-.16.24-.14.3-.18.23-.15.29-.2.23-.16.29-.22.2-.17.3-.25.19-.17.3-.29.16-.16.42-.45,0,0,.13-.15,1.58-10.58c.28-2.93-4-8.88-4.71-9.68C42.2,53.83,42,47.92,42,47.92a29,29,0,0,0,5.42,9.16c4.13,5,9.32,9.94,10.42,13.69.1.51.27.87.52.87s.73-.54,1.28-2c1-2.56-.58-7.62-1.52-9.87C56,54.63,54.17,49.38,54,43.82c-.34-10.58-1.64-11.59-4.09-15.55-4.09-8.14-.63-9.26-.63-9.26a34.51,34.51,0,0,0,5.44.51A9.79,9.79,0,0,0,58.47,19a30.73,30.73,0,0,1,4.42-1.86h0a3.29,3.29,0,0,0,1.24-.22,1.79,1.79,0,0,0,.59-.39A3.72,3.72,0,0,0,65.65,15,8.63,8.63,0,0,0,66,12.06ZM38.05,6.7a3.1,3.1,0,0,0-.47.26c-2.23,1.48-2.35,5.85.28,7.44-2.11-.18-3-1.47-3.15-3.8a6.31,6.31,0,0,1,.21-2,3.72,3.72,0,0,1,1.17-2.07,2.18,2.18,0,0,1,2.66-.18l.17.13A3.48,3.48,0,0,0,38.05,6.7ZM51,11a1.69,1.69,0,0,1-1.11-.48,3.5,3.5,0,0,1-.78-4.27,3.48,3.48,0,0,1,.73-1A2.83,2.83,0,0,1,51,4.48a1,1,0,0,1,.34,0,1.7,1.7,0,0,1,1,.72A15.39,15.39,0,0,1,54.2,9l-.05.06C53.85,9.38,52.32,10.91,51,11Z"/><path class="cls-1" d="M53.63,86.78l-.29.22Z"/><path class="cls-1" d="M38.46,86.27l-.15-.14Z"/><path class="cls-1" d="M54.62,85.9l-.3.29Z"/><path class="cls-1" d="M53.11,87.16l-.29.2Z"/><path class="cls-1" d="M40,87.43l-.22-.14Z"/><path class="cls-1" d="M41.59,88.3l-.25-.11Z"/><path class="cls-1" d="M43.28,88.89,43,88.82Z"/><path class="cls-1" d="M42.14,88.52l-.25-.09Z"/><path class="cls-1" d="M41,88l-.24-.12Z"/><path class="cls-1" d="M43.85,89,43.58,89Z"/><path class="cls-1" d="M42.71,88.72l-.27-.08Z"/><path class="cls-1" d="M85.68,35c-2.63-2.9-5.94-6.46-9.57-10.13-2.72-2.75-5.62-5.56-8.55-8.21a5.66,5.66,0,0,1-1.07,1.52,3.67,3.67,0,0,1-.43.37c4.25,3.85,8.43,8,12.12,11.91.67.7,1.32,1.4,2,2.08,1.34,1.43,2.6,2.81,3.75,4.08h0a11.72,11.72,0,0,1,1.59,2.22c.08.16.17.32.24.48a11.69,11.69,0,0,1,.61,1.47,12.19,12.19,0,0,1,.48,2c0,.34.08.69.1,1,0,.18,0,.35,0,.52A11.79,11.79,0,0,1,84,52.24l-28.8,33,0,0-.42.45-.16.16-.3.29-.19.17-.3.25-.2.17-.29.22-.23.16-.29.2-.23.15-.3.18-.24.14-.3.16-.25.12-.3.15-.26.11-.31.13-.26.09-.31.11-.27.09-.32.09L49.2,89l-.32.07-.27.06-.32.06-.28,0-.32,0-.28,0-.32,0-.29,0h-.9l-.3,0-.28,0-.31,0-.27,0-.31,0-.27,0L43.85,89,43.58,89l-.3-.08L43,88.82l-.3-.1-.27-.08-.3-.12-.25-.09-.3-.13-.25-.11L41,88l-.24-.12-.29-.17-.23-.13-.3-.19-.22-.14-.29-.21-.21-.15L39,86.7l-.19-.15-.32-.28-.15-.14c-.15-.14-.31-.29-.45-.45L26.21,73.56l-1.13-1.17L24,71.22,8.22,54.84,6.11,52.65l-.43-.45a12.41,12.41,0,0,1-1.1-1.32c-.22-.31-.42-.62-.61-.94a12.74,12.74,0,0,1-.72-1.49,12,12,0,0,1-.39-1.15c-.09-.31-.17-.63-.24-.94l-.09-.54c0-.36-.09-.72-.11-1.08a12,12,0,0,1,.07-2.16,11.72,11.72,0,0,1,3-6.47A251.9,251.9,0,0,1,28,13.85c0-.46,0-.74,0-.75v0a18.26,18.26,0,0,1,.17-2.46c-1.7,1.38-3.52,2.93-5.44,4.67-3.11,2.8-6.23,5.83-9.16,8.8C9.8,27.85,6.36,31.54,3.68,34.49a14.23,14.23,0,0,0,.26,19.38L36.12,87.36A14.2,14.2,0,0,0,57,86.85l28.8-33A14.19,14.19,0,0,0,85.68,35Z"/><path class="cls-1" d="M23.92,42a4.1,4.1,0,0,0,2.22-2.24,4.2,4.2,0,0,0,0-3.21.61.61,0,0,0-.05-.12,4.22,4.22,0,0,0-2.19-2.17,4,4,0,0,0-3.16,0,4.15,4.15,0,0,0-2.21,5.44,4.31,4.31,0,0,0,.45.82L6.11,52.65l2.11,2.19,12.35-13A4.07,4.07,0,0,0,23.92,42ZM20.4,38.9a2.07,2.07,0,1,1,3.84,0,2,2,0,0,1-1.12,1.13A2.09,2.09,0,0,1,20.43,39Z"/><path class="cls-1" d="M65.22,41.15a4,4,0,0,0-2.15,2.31,4.18,4.18,0,0,0,.11,3.2l.06.12a4.17,4.17,0,0,0,2.25,2.1,4,4,0,0,0,3.16-.06,4.15,4.15,0,0,0,2-5.51,4,4,0,0,0-.48-.8l9.93-10c-.64-.68-1.29-1.38-2-2.08L68.56,41.18A4.05,4.05,0,0,0,65.22,41.15Zm3.61,3a2.11,2.11,0,0,1-1,2.78,2,2,0,0,1-1.59,0A2.13,2.13,0,0,1,65,44.22a2,2,0,0,1,1.08-1.16,2.09,2.09,0,0,1,2.73,1Z"/><path class="cls-1" d="M103.44,20.56h9.48l13.73,25,13.66-25h9.54V64.84h-9.54V37.26l-13.66,25-13.73-25V64.84h-9.48Z"/><path class="cls-1" d="M180.79,54.34l6,6.12c-3,3.09-8.71,5.15-13.6,5.15-9.93,0-17.66-7.28-17.66-17.53,0-10,7.41-17.33,17.14-17.33,10.44,0,16.56,7.92,16.56,20.49h-24a8.1,8.1,0,0,0,7.93,6.06A12.06,12.06,0,0,0,180.79,54.34Zm-15.47-9.87h14.89a7,7,0,0,0-7.15-5.41A8.06,8.06,0,0,0,165.32,44.47Z"/><path class="cls-1" d="M217.72,54.34l6,6.12c-3,3.09-8.7,5.15-13.6,5.15-9.93,0-17.66-7.28-17.66-17.53,0-10,7.41-17.33,17.14-17.33,10.44,0,16.57,7.92,16.57,20.49h-24a8.08,8.08,0,0,0,7.92,6.06A12,12,0,0,0,217.72,54.34Zm-15.46-9.87h14.88A7,7,0,0,0,210,39.06,8,8,0,0,0,202.26,44.47Z"/><path class="cls-1" d="M252.08,30.75v7.92c-7,0-11.41,4-11.41,10.25V64.84h-9.41V31.52h9.41v6.19A12.43,12.43,0,0,1,252.08,30.75Z"/><path class="cls-1" d="M275.67,46.28,288.5,64.84H277.67l-8.25-12.5-4,4.32v8.18H256V19.79h9.41v26.1L277.8,31.52h10.83Z"/><path class="cls-1" d="M321.24,44.93V64.84h-9.08V61.49a13.24,13.24,0,0,1-9.8,4.12c-7.09,0-12.57-4.25-12.57-10.63,0-6.57,6.12-11.09,13.86-11.09a24,24,0,0,1,8.51,1.68v-.64c0-3.55-2.2-6.64-7.67-6.64a19.07,19.07,0,0,0-8.64,2.38l-3.16-6.25a30.52,30.52,0,0,1,13.92-3.67C315.31,30.75,321.24,36.22,321.24,44.93Zm-9.08,9.41v-3.1A21.2,21.2,0,0,0,305,50c-3.41,0-6.12,2-6.12,4.7s2.38,4.38,5.61,4.38C308.1,59.1,311.51,57.43,312.16,54.34Z"/><path class="cls-1" d="M347.67,62.71a12.13,12.13,0,0,1-7.67,2.9c-5.86,0-10-4.18-10-10.18V39.12h-4.57v-7.6H330V22.37h9v9.15h7.21v7.6H339V54c0,2.19,1.41,3.74,3.15,3.74a4.84,4.84,0,0,0,3.23-1.1Z"/></g></g></svg>