<svg xmlns="http://www.w3.org/2000/svg" viewBox="0 0 29.29 50"><defs><style>.cls-1{fill:#fff;}</style></defs><g id="Capa_2" data-name="Capa 2"><g id="Capa_1-2" data-name="Capa 1"><path class="cls-1" d="M26.43,50H2.86A2.86,2.86,0,0,1,0,47.14V2.86A2.86,2.86,0,0,1,2.86,0H26.43a2.86,2.86,0,0,1,2.86,2.86V47.14A2.86,2.86,0,0,1,26.43,50ZM2.86,1.43A1.43,1.43,0,0,0,1.43,2.86V47.14a1.43,1.43,0,0,0,1.43,1.43H26.43a1.43,1.43,0,0,0,1.43-1.43V2.86a1.43,1.43,0,0,0-1.43-1.43Z"/><path class="cls-1" d="M28.57,7.86H.71a.72.72,0,0,1,0-1.43H28.57a.72.72,0,1,1,0,1.43Z"/><path class="cls-1" d="M28.57,40.71H.71a.71.71,0,0,1,0-1.42H28.57a.71.71,0,1,1,0,1.42Z"/><path class="cls-1" d="M14.64,47.28a2.64,2.64,0,1,1,2.64-2.64A2.64,2.64,0,0,1,14.64,47.28Zm0-3.84a1.21,1.21,0,1,0,1.21,1.2h0a1.21,1.21,0,0,0-1.21-1.2Z"/><path class="cls-1" d="M17.5,4.82H11.79a.72.72,0,1,1,0-1.43H17.5a.72.72,0,0,1,0,1.43Z"/></g></g></svg>