<svg xmlns="http://www.w3.org/2000/svg" viewBox="0 0 383.29 110"><defs><style>.cls-1{fill:none;}.cls-2{fill:#39b54a;}.cls-3{fill:#595959;}.cls-4{fill:#606060;}</style></defs><g id="Capa_2" data-name="Capa 2"><g id="Capa_1-2" data-name="Capa 1"><path class="cls-1" d="M48.94,105.45l-.35-.2Z"/><path class="cls-1" d="M49.58,105.77l-.35-.18Z"/><path class="cls-1" d="M48.31,105.09l-.35-.22Z"/><path class="cls-1" d="M47.69,104.7l-.35-.25Z"/><path class="cls-1" d="M50.24,106.06l-.36-.16Z"/><path class="cls-1" d="M52.27,106.71l-.37-.09Z"/><path class="cls-1" d="M50.91,106.31l-.36-.13Z"/><path class="cls-1" d="M51.58,106.53l-.36-.12Z"/><path class="cls-1" d="M64,104.35l-.26.19Z"/><path class="cls-1" d="M64.57,103.89l-.25.19Z"/><path class="cls-1" d="M47.09,104.27l-.35-.28Z"/><path class="cls-1" d="M3,55c-.07-.43-.11-.86-.14-1.3C2.93,54.1,3,54.53,3,55Z"/><path class="cls-1" d="M46.51,103.8c-.13-.1-.25-.22-.38-.33C46.26,103.58,46.38,103.7,46.51,103.8Z"/><path class="cls-1" d="M65.15,103.38l-.23.2Z"/><path class="cls-1" d="M3.9,58.11a11.21,11.21,0,0,1-.47-1.38A11.21,11.21,0,0,0,3.9,58.11Z"/><path class="cls-1" d="M60,106.39l-.33.1Z"/><path class="cls-1" d="M61.4,105.86l-.3.13Z"/><path class="cls-1" d="M60.73,106.14l-.32.12Z"/><path class="cls-1" d="M53,106.86l-.37-.08Z"/><path class="cls-1" d="M63.35,104.78l-.28.18Z"/><path class="cls-1" d="M58.63,106.77l-.33.07Z"/><path class="cls-1" d="M62.07,105.54l-.3.14Z"/><path class="cls-1" d="M62.72,105.18l-.29.16Z"/><path class="cls-1" d="M59.34,106.6l-.33.08Z"/><path class="cls-1" d="M54.36,107.05,54,107Z"/><path class="cls-1" d="M55.06,107.09l-.37,0Z"/><path class="cls-1" d="M53.66,107l-.37,0Z"/><path class="cls-1" d="M57.2,107l-.34,0Z"/><path class="cls-1" d="M55.59,107.11h0Z"/><path class="cls-1" d="M57.92,106.91l-.34,0Z"/><path class="cls-1" d="M56.48,107.08h0Z"/><path class="cls-1" d="M46,103.3c-.19-.17-.37-.35-.54-.53C45.58,103,45.76,103.13,46,103.3Z"/><path class="cls-1" d="M102.52,46.57a13.91,13.91,0,0,0-1.9-2.66h0A13.91,13.91,0,0,1,102.52,46.57Z"/><path class="cls-1" d="M69.92,98l-1.76,2-1.77,2-.16.19,0,0,0,0,34.55-39.62a14.07,14.07,0,0,0,3.48-9.4,14.07,14.07,0,0,1-3.48,9.4Z"/><path class="cls-1" d="M65.7,102.84l-.19.19Z"/><path class="cls-1" d="M102.82,47.14a14.92,14.92,0,0,1,.72,1.77A14.92,14.92,0,0,0,102.82,47.14Z"/><path class="cls-2" d="M3,51.07a15,15,0,0,0-.08,2.59A15,15,0,0,1,3,51.07Z"/><path class="cls-2" d="M104.12,51.37c.06.41.1.83.12,1.25C104.22,52.2,104.18,51.78,104.12,51.37Z"/><path class="cls-2" d="M3.43,56.73a11,11,0,0,1-.28-1.13A11,11,0,0,0,3.43,56.73Z"/><path class="cls-2" d="M5.5,61a12.73,12.73,0,0,1-.73-1.13A12.73,12.73,0,0,0,5.5,61Z"/><path class="cls-2" d="M56.86,107.05l-.38,0Z"/><path class="cls-2" d="M56.13,107.09h0Z"/><path class="cls-2" d="M54.69,107.07l-.33,0Z"/><path class="cls-2" d="M54,107l-.33,0Z"/><path class="cls-2" d="M55.4,107.1h0Z"/><path class="cls-2" d="M58.3,106.84l-.38.07Z"/><path class="cls-2" d="M59.71,106.49l-.37.11Z"/><path class="cls-2" d="M61.1,106l-.37.15Z"/><path class="cls-2" d="M64.92,103.58l-.35.31Z"/><path class="cls-2" d="M61.77,105.68l-.37.18Z"/><path class="cls-2" d="M57.58,107l-.38.05Z"/><path class="cls-2" d="M59,106.68a2.62,2.62,0,0,1-.38.09A2.62,2.62,0,0,0,59,106.68Z"/><path class="cls-2" d="M63.07,105l-.35.22Z"/><path class="cls-2" d="M62.43,105.34l-.36.2Z"/><path class="cls-2" d="M60.41,106.26l-.37.13Z"/><path class="cls-2" d="M66.21,102.3c-.17.18-.34.37-.51.54C65.87,102.67,66,102.48,66.21,102.3Z"/><path class="cls-2" d="M47.34,104.45l-.25-.18Z"/><path class="cls-2" d="M46.74,104c-.08-.07-.16-.12-.23-.19S46.66,103.92,46.74,104Z"/><path class="cls-2" d="M53.29,106.92l-.33-.06Z"/><path class="cls-2" d="M48.59,105.25l-.28-.16Z"/><path class="cls-2" d="M79.14,14.46a.87.87,0,0,0-.74-.85C67.51,12.51,63.51,1.49,63.51,1.49A35.72,35.72,0,0,0,53.46,0a24.76,24.76,0,0,0-7.18,1,13.06,13.06,0,0,0-6.9,5.13,15.45,15.45,0,0,0-2,3.76,17.31,17.31,0,0,0-.92,4.34c0,.48-.06.95-.06,1.43,0,0,.26,12.62.28,16.23h0l.07,4.53S32.64,70.3,31.43,88.23l14,14.54c.17.18.35.36.54.53l.18.17c.13.11.25.23.38.33s.15.12.23.19l.35.28.25.18.35.25.27.17.35.22.28.16.35.2.29.14.35.18.3.13.36.16.31.12.36.13.31.1.36.12.32.09.37.09.32.07.37.08.33.06.37,0,.33,0,.37,0,.33,0,.37,0h1.42l.38,0,.34,0,.38-.05.34,0,.38-.07.33-.07a2.62,2.62,0,0,0,.38-.09l.33-.08.37-.11.33-.1.37-.13.32-.12.37-.15.3-.13.37-.18.3-.14.36-.2.29-.16.35-.22.28-.18.36-.24.26-.19c.12-.08.23-.18.35-.27l.25-.19.35-.31.23-.2.36-.35.19-.19c.17-.17.34-.36.51-.54l0,0,.16-.19L68.28,89.4c.34-3.52-4.77-10.65-5.64-11.61-12-13.23-12.26-20.31-12.26-20.31.73,2.61,3.21,7,6.51,11,5,5.94,11.18,11.91,12.5,16.41.11.61.32,1.05.62,1.05s.87-.66,1.53-2.43c1.18-3.07-.69-9.14-1.82-11.83-2.57-6.15-4.75-12.45-5-19.11-.42-12.69-2-13.91-4.91-18.66-4.9-9.76-.75-11.1-.75-11.1a41.3,41.3,0,0,0,6.52.61,11.84,11.84,0,0,0,4.51-.68c.67-.3,4.57-2.23,5.3-2.23h0a3.88,3.88,0,0,0,1.5-.27,2.2,2.2,0,0,0,.71-.47,4.53,4.53,0,0,0,1-1.83A10.22,10.22,0,0,0,79.14,14.46ZM45.64,8a3.1,3.1,0,0,0-.57.3c-2.67,1.78-2.82,7,.34,8.94-2.53-.22-3.64-1.77-3.78-4.56a7.63,7.63,0,0,1,.25-2.42,4.51,4.51,0,0,1,1.41-2.48,2.63,2.63,0,0,1,3.19-.22,1.58,1.58,0,0,1,.2.16A3.55,3.55,0,0,0,45.64,8Zm15.49,5.13a2,2,0,0,1-1.34-.58,4.19,4.19,0,0,1-.94-5.12,4.37,4.37,0,0,1,.88-1.19,3.46,3.46,0,0,1,1.44-.91,1.14,1.14,0,0,1,.41,0,2,2,0,0,1,1.2.87A18.53,18.53,0,0,1,65,10.81l-.07.07C64.59,11.24,62.75,13.09,61.13,13.17Z"/><path class="cls-2" d="M64.32,104.08c-.12.09-.23.19-.35.27C64.09,104.27,64.2,104.17,64.32,104.08Z"/><path class="cls-2" d="M46.13,103.47,46,103.3Z"/><path class="cls-2" d="M65.51,103l-.36.35Z"/><path class="cls-2" d="M63.71,104.54l-.36.24Z"/><path class="cls-2" d="M48,104.87l-.27-.17Z"/><path class="cls-2" d="M49.88,105.9l-.3-.13Z"/><path class="cls-2" d="M51.9,106.62l-.32-.09Z"/><path class="cls-2" d="M50.55,106.18l-.31-.12Z"/><path class="cls-2" d="M49.23,105.59l-.29-.14Z"/><path class="cls-2" d="M52.59,106.78l-.32-.07Z"/><path class="cls-2" d="M51.22,106.41l-.31-.1Z"/><path class="cls-2" d="M102.76,42c-3.14-3.49-7.12-7.75-11.47-12.16C88,26.52,84.55,23.15,81,20a6.69,6.69,0,0,1-1.29,1.83,5.37,5.37,0,0,1-.51.44c5.1,4.62,10.11,9.64,14.53,14.28.81.84,1.59,1.68,2.36,2.49,1.61,1.73,3.12,3.37,4.5,4.9h0a13.91,13.91,0,0,1,1.9,2.66l.3.57a14.92,14.92,0,0,1,.72,1.77,14.17,14.17,0,0,1,.58,2.46c.06.41.1.83.12,1.25,0,.21,0,.42,0,.63a14.07,14.07,0,0,1-3.48,9.4L66.23,102.27l0,0c-.17.18-.34.37-.51.54l-.19.19-.36.35-.23.2-.35.31-.25.19c-.12.09-.23.19-.35.27l-.26.19-.36.24-.28.18-.35.22-.29.16-.36.2-.3.14-.37.18-.3.13-.37.15-.32.12-.37.13-.33.1-.37.11-.33.08a2.62,2.62,0,0,1-.38.09l-.33.07-.38.07-.34,0-.38.05-.34,0-.38,0H55.06l-.37,0-.33,0L54,107l-.33,0-.37,0-.33-.06-.37-.08-.32-.07-.37-.09-.32-.09-.36-.12-.31-.1-.36-.13-.31-.12-.36-.16-.3-.13-.35-.18-.29-.14-.35-.2-.28-.16-.35-.22-.27-.17-.35-.25-.25-.18-.35-.28c-.08-.07-.16-.12-.23-.19s-.25-.22-.38-.33L46,103.3c-.19-.17-.37-.35-.54-.53l-14-14.54-1.35-1.41-1.34-1.39L9.86,65.78,7.33,63.15l-.52-.54A13.89,13.89,0,0,1,5.5,61a13.77,13.77,0,0,1-1.6-2.92,11.21,11.21,0,0,1-.47-1.38,11,11,0,0,1-.28-1.13c0-.21-.08-.43-.11-.64-.07-.43-.11-.86-.14-1.3A15,15,0,0,1,3,51.07a14.16,14.16,0,0,1,3.58-7.76c7.09-7.81,17.45-18.67,27-26.7,0-.55,0-.88,0-.9v-.06a20.35,20.35,0,0,1,.21-2.94q-3.08,2.47-6.53,5.59c-3.73,3.36-7.47,7-11,10.55-4.5,4.56-8.62,9-11.83,12.52a17.07,17.07,0,0,0,.31,23.25l38.59,40.15a17,17,0,0,0,25.09-.6L103,64.55A17,17,0,0,0,102.76,42Z"/><path class="cls-2" d="M28.68,50.37a4.83,4.83,0,0,0,2.67-2.69,5.06,5.06,0,0,0,0-3.84l-.06-.15a5.13,5.13,0,0,0-2.63-2.6,4.89,4.89,0,0,0-3.79,0,5,5,0,0,0-2.65,6.53,5.46,5.46,0,0,0,.54,1L7.33,63.15l2.53,2.63L24.68,50.22A4.84,4.84,0,0,0,28.68,50.37Zm-4.21-3.72a2.51,2.51,0,0,1,1.33-3.29,2.44,2.44,0,0,1,1.91,0,2.55,2.55,0,0,1,1.36,3.31,2.39,2.39,0,0,1-1.34,1.36,2.52,2.52,0,0,1-3.23-1.33Z"/><path class="cls-2" d="M78.22,49.36a4.85,4.85,0,0,0-2.58,2.77A5.06,5.06,0,0,0,75.78,56l.06.14a5.1,5.1,0,0,0,2.71,2.52,4.84,4.84,0,0,0,3.79-.07A5,5,0,0,0,84.79,52a5.66,5.66,0,0,0-.57-1l11.9-12c-.77-.81-1.55-1.65-2.36-2.49L82.23,49.39A4.87,4.87,0,0,0,78.22,49.36ZM82.55,53a2.5,2.5,0,0,1-1.23,3.32,2.39,2.39,0,0,1-1.91,0A2.55,2.55,0,0,1,78,55,2.58,2.58,0,0,1,77.94,53a2.47,2.47,0,0,1,1.31-1.4,2.53,2.53,0,0,1,3.27,1.24Z"/><path class="cls-3" d="M119.89,19.23h9.69l14,25.56,14-25.56h9.75V64.49h-9.75V36.29l-14,25.56-14-25.56v28.2h-9.69Z"/><path class="cls-3" d="M199,53.75,205.08,60c-3,3.16-8.89,5.27-13.9,5.27-10.15,0-18.05-7.44-18.05-17.92,0-10.28,7.58-17.72,17.52-17.72,10.68,0,16.94,8.1,16.94,21H183a8.27,8.27,0,0,0,8.11,6.19A12.34,12.34,0,0,0,199,53.75ZM183.14,43.67h15.22a7.1,7.1,0,0,0-7.31-5.53A8.24,8.24,0,0,0,183.14,43.67Z"/><path class="cls-3" d="M236.71,53.75,242.84,60c-3,3.16-8.9,5.27-13.9,5.27-10.15,0-18.06-7.44-18.06-17.92,0-10.28,7.58-17.72,17.53-17.72,10.67,0,16.93,8.1,16.93,21H220.76a8.28,8.28,0,0,0,8.11,6.19A12.32,12.32,0,0,0,236.71,53.75ZM220.9,43.67h15.22a7.12,7.12,0,0,0-7.32-5.53A8.22,8.22,0,0,0,220.9,43.67Z"/><path class="cls-3" d="M271.83,29.64v8.1c-7.12,0-11.66,4.09-11.66,10.48V64.49h-9.62V30.43h9.62v6.32A12.7,12.7,0,0,1,271.83,29.64Z"/><path class="cls-3" d="M295.94,45.51l13.12,19H298l-8.44-12.78-4.08,4.41v8.37h-9.62V18.43h9.62V45.12l12.65-14.69h11.07Z"/><path class="cls-3" d="M342.53,44.13V64.49h-9.29V61.06a13.54,13.54,0,0,1-10,4.22c-7.25,0-12.85-4.35-12.85-10.87,0-6.72,6.26-11.33,14.17-11.33a24.58,24.58,0,0,1,8.7,1.71v-.66c0-3.62-2.24-6.79-7.84-6.79a19.49,19.49,0,0,0-8.83,2.44l-3.23-6.39a31.23,31.23,0,0,1,14.23-3.75C336.46,29.64,342.53,35.24,342.53,44.13Zm-9.29,9.62V50.59a21.61,21.61,0,0,0-7.32-1.25c-3.49,0-6.26,2-6.26,4.81s2.44,4.48,5.74,4.48C329.09,58.63,332.58,56.91,333.24,53.75Z"/><path class="cls-3" d="M369.54,62.32a12.46,12.46,0,0,1-7.84,3c-6,0-10.21-4.28-10.21-10.41V38.2h-4.68V30.43h4.68V21.07h9.22v9.36h7.38V38.2h-7.38V53.36c0,2.24,1.45,3.82,3.23,3.82a4.91,4.91,0,0,0,3.29-1.12Z"/><path class="cls-3" d="M121.57,84.13l-2.47-8.45h1.32l1.88,7.12L124,75.68h1.25l1.87,7.19,1.73-7.19h1.32l-2.32,8.45H126.4l-1.74-6.67L123,84.13Z"/><path class="cls-3" d="M137.27,79.08h.7a3.42,3.42,0,0,0-.39-2,2.29,2.29,0,0,0-1.73-.47,6.26,6.26,0,0,0-2.26.36l-.24-1a9.15,9.15,0,0,1,2.94-.48,2.64,2.64,0,0,1,3,3v5.64h-.75l-.44-1a5.14,5.14,0,0,1-1.34.87,3.52,3.52,0,0,1-1.31.23,2.4,2.4,0,0,1-1.84-.71,2.57,2.57,0,0,1-.66-1.85Q132.93,79.09,137.27,79.08Zm.71,1.07h-.76a5.81,5.81,0,0,0-2.37.33,1.11,1.11,0,0,0-.65,1.06,1.76,1.76,0,0,0,.37,1.17,1.18,1.18,0,0,0,1,.46,2.47,2.47,0,0,0,1.15-.28,5.67,5.67,0,0,0,1.29-1Z"/><path class="cls-3" d="M144.24,82.31V76.7h-1.15v-1h1.16V73.27h1.27v2.41h2.06v1H145.5v5.37a1,1,0,0,0,1.15,1.13,4.83,4.83,0,0,0,.83-.1l.19.92a5,5,0,0,1-1.43.22,2.32,2.32,0,0,1-1.37-.45A1.69,1.69,0,0,1,144.24,82.31Z"/><path class="cls-3" d="M156.54,82.82l.25,1a8.43,8.43,0,0,1-2.38.41A3.22,3.22,0,0,1,151.69,83a5.23,5.23,0,0,1-.91-3.27,4.72,4.72,0,0,1,.94-3.17,3.51,3.51,0,0,1,2.79-1.09,8.86,8.86,0,0,1,2.23.41l-.5,1a6.09,6.09,0,0,0-1.68-.27,2.16,2.16,0,0,0-1.85.76,4,4,0,0,0-.56,2.4c0,2.22.79,3.33,2.38,3.33A7.42,7.42,0,0,0,156.54,82.82Z"/><path class="cls-3" d="M166.9,84.13h-1.27V78.57c0-1.36-.56-2-1.7-2a2.81,2.81,0,0,0-2.08.81v6.79h-1.27V72.3h1.25v4c.25-.2.44-.35.58-.44a3,3,0,0,1,.7-.27,4,4,0,0,1,1.09-.14,2.74,2.74,0,0,1,1.93.71,2.61,2.61,0,0,1,.77,2Z"/><path class="cls-3" d="M183.11,83.09a3.37,3.37,0,0,1-2.72,1.15,3.31,3.31,0,0,1-2.7-1.14,5,5,0,0,1-.93-3.2,5.16,5.16,0,0,1,.9-3.22,3.15,3.15,0,0,1,2.65-1.17,3.43,3.43,0,0,1,2.76,1.19,5.65,5.65,0,0,1,0,6.39Zm-.3-3.12a4.16,4.16,0,0,0-.64-2.49,2.2,2.2,0,0,0-1.88-.87,1.92,1.92,0,0,0-1.75.82,4.87,4.87,0,0,0-.52,2.51c0,2.13.79,3.2,2.35,3.2a2.19,2.19,0,0,0,1.84-.77A3.88,3.88,0,0,0,182.81,80Z"/><path class="cls-3" d="M193.83,75.67,191,84.13h-1.45l-2.84-8.46h1.43l2.15,7.11,2.16-7.11Z"/><path class="cls-3" d="M203.11,80.18h-5.39a3,3,0,0,0,.76,2.3,2.84,2.84,0,0,0,1.94.67,5.05,5.05,0,0,0,.83-.05l.45-.12a1.51,1.51,0,0,0,.29-.1c.28-.07.53-.15.73-.22l.2,1a8.52,8.52,0,0,1-2.64.6,3.74,3.74,0,0,1-2.78-1.06A4.32,4.32,0,0,1,196.45,80a5,5,0,0,1,1-3.3,3.12,3.12,0,0,1,2.5-1.19,3,3,0,0,1,2.36,1,4,4,0,0,1,.84,2.66C203.14,79.45,203.13,79.8,203.11,80.18Zm-5.31-1h4.12a3.47,3.47,0,0,0-.44-1.93,1.68,1.68,0,0,0-1.53-.68,1.82,1.82,0,0,0-1.59.73A3.43,3.43,0,0,0,197.8,79.22Z"/><path class="cls-3" d="M208.47,77.68v6.45H207.2V75.68H208l.2,1a7.42,7.42,0,0,1,1.35-.9,2.76,2.76,0,0,1,1.24-.27,3.08,3.08,0,0,1,.51,0l.23.07-.2,1.16a2.64,2.64,0,0,0-.83-.1A3,3,0,0,0,208.47,77.68Z"/><path class="cls-3" d="M222.58,84.3l-2.86-8.62h1.44l2.15,7.1,2.16-7.1h1.4L224,84.13a9.1,9.1,0,0,1-1.23,2.54A5,5,0,0,1,221,88.12l-.47-.88a4.3,4.3,0,0,0,1.26-1.14A4.22,4.22,0,0,0,222.58,84.3Z"/><path class="cls-3" d="M235.81,83.09a3.37,3.37,0,0,1-2.72,1.15,3.28,3.28,0,0,1-2.69-1.14,4.9,4.9,0,0,1-.94-3.2,5.16,5.16,0,0,1,.9-3.22A3.15,3.15,0,0,1,233,75.51a3.42,3.42,0,0,1,2.75,1.19,5.65,5.65,0,0,1,0,6.39Zm-.3-3.12a4.16,4.16,0,0,0-.64-2.49,2.2,2.2,0,0,0-1.88-.87,1.92,1.92,0,0,0-1.75.82,4.88,4.88,0,0,0-.51,2.51c0,2.13.78,3.2,2.35,3.2a2.19,2.19,0,0,0,1.83-.77A3.88,3.88,0,0,0,235.51,80Z"/><path class="cls-3" d="M245.57,82V75.68h1.28v8.45h-.74l-.43-1a4.18,4.18,0,0,1-2.58,1.1,2.43,2.43,0,0,1-1.89-.72,3,3,0,0,1-.65-2v-5.8h1.27v5.6a2.6,2.6,0,0,0,.3,1.43,1.07,1.07,0,0,0,1,.44,3,3,0,0,0,1.39-.37A3.67,3.67,0,0,0,245.57,82Z"/><path class="cls-3" d="M252.88,77.68v6.45h-1.26V75.68h.81l.2,1a7.42,7.42,0,0,1,1.35-.9,2.73,2.73,0,0,1,1.24-.27,2.85,2.85,0,0,1,.5,0l.24.07-.2,1.16a2.64,2.64,0,0,0-.83-.1A3,3,0,0,0,252.88,77.68Z"/><path class="cls-3" d="M266.76,88.16h-1.27V75.7h.75l.44,1a7.93,7.93,0,0,1,1.32-.84,3.08,3.08,0,0,1,1.36-.3q3,0,3.05,4.38a4.52,4.52,0,0,1-1.09,3.47,3.14,3.14,0,0,1-2.18.89,4.09,4.09,0,0,1-2.38-.81Zm0-10.38v4.51a2.27,2.27,0,0,0,.91.64,2.88,2.88,0,0,0,1.1.24,2.05,2.05,0,0,0,1.84-.78,4.4,4.4,0,0,0,.53-2.43,4.79,4.79,0,0,0-.53-2.5,1.53,1.53,0,0,0-1.33-.85,2.88,2.88,0,0,0-1.07.22,4.06,4.06,0,0,0-.8.42C267.24,77.38,267,77.55,266.76,77.78Z"/><path class="cls-3" d="M280.06,79.08h.7a3.42,3.42,0,0,0-.39-2,2.29,2.29,0,0,0-1.73-.47,6.26,6.26,0,0,0-2.26.36l-.24-1a9.15,9.15,0,0,1,2.94-.48,2.64,2.64,0,0,1,3,3v5.64h-.75l-.44-1a5.14,5.14,0,0,1-1.34.87,3.52,3.52,0,0,1-1.31.23,2.4,2.4,0,0,1-1.84-.71,2.57,2.57,0,0,1-.66-1.85Q275.72,79.09,280.06,79.08Zm.71,1.07H280a5.81,5.81,0,0,0-2.37.33,1.11,1.11,0,0,0-.65,1.06,1.76,1.76,0,0,0,.37,1.17,1.18,1.18,0,0,0,1,.46,2.47,2.47,0,0,0,1.15-.28,5.67,5.67,0,0,0,1.29-1Z"/><path class="cls-3" d="M291.79,82.82l.26,1a8.55,8.55,0,0,1-2.39.41A3.22,3.22,0,0,1,286.94,83a5.23,5.23,0,0,1-.91-3.27,4.67,4.67,0,0,1,1-3.17,3.51,3.51,0,0,1,2.78-1.09,9,9,0,0,1,2.24.41l-.51,1a6.08,6.08,0,0,0-1.67-.27,2.17,2.17,0,0,0-1.86.76,4.12,4.12,0,0,0-.56,2.4c0,2.22.79,3.33,2.38,3.33A7.42,7.42,0,0,0,291.79,82.82Z"/><path class="cls-3" d="M295.83,72.3h1.27v7l3.62-3.59h1.6l-3.58,3.43,3.77,5h-1.44L298,79.91l-.9.91v3.31h-1.27Z"/><path class="cls-4" d="M383.29,18.65a6.37,6.37,0,1,1-12.74,0,6.37,6.37,0,1,1,12.74,0Zm-6.38,4.76c2.87,0,4.49-2.1,4.49-4.76s-1.62-4.75-4.49-4.75-4.48,2.09-4.49,4.75S374.06,23.41,376.91,23.41Zm1.53-3.88c2.35-.53,1.87-4.12-1-4.12h-3.09v6.47h1.71v-2h.6l1.53,2h1.84v-.37Zm-1-2.59a.74.74,0,1,1,0,1.48h-1.38V16.94Z"/></g></g></svg>