<svg xmlns="http://www.w3.org/2000/svg" viewBox="0 0 317.94 83.87"><defs><style>.cls-1{fill:#606060;}</style></defs><g id="Capa_2" data-name="Capa 2"><g id="Capa_1-2" data-name="Capa 1"><path class="cls-1" d="M37.31,80.4,37,80.25Z"/><path class="cls-1" d="M37.81,80.64l-.28-.13Z"/><path class="cls-1" d="M36.83,80.13,36.56,80Z"/><path class="cls-1" d="M36.36,79.83l-.26-.19Z"/><path class="cls-1" d="M38.31,80.86,38,80.75Z"/><path class="cls-1" d="M39.85,81.36l-.28-.07Z"/><path class="cls-1" d="M38.81,81.06,38.54,81Z"/><path class="cls-1" d="M39.33,81.22l-.28-.08Z"/><path class="cls-1" d="M48.78,79.56l-.21.15Z"/><path class="cls-1" d="M49.23,79.21l-.19.15Z"/><path class="cls-1" d="M35.91,79.5a2.88,2.88,0,0,1-.27-.22A2.88,2.88,0,0,0,35.91,79.5Z"/><path class="cls-1" d="M2.31,41.9c-.05-.32-.08-.65-.1-1C2.23,41.25,2.26,41.58,2.31,41.9Z"/><path class="cls-1" d="M35.46,79.14l-.29-.25Z"/><path class="cls-1" d="M49.67,78.82,49.5,79Z"/><path class="cls-1" d="M3,44.3a9.84,9.84,0,0,1-.36-1A9.84,9.84,0,0,0,3,44.3Z"/><path class="cls-1" d="M45.78,81.12l-.25.07Z"/><path class="cls-1" d="M46.82,80.71l-.24.1Z"/><path class="cls-1" d="M46.3,80.93l-.24.09Z"/><path class="cls-1" d="M40.38,81.48l-.28-.06Z"/><path class="cls-1" d="M48.3,79.89l-.21.14Z"/><path class="cls-1" d="M44.7,81.41l-.25,0Z"/><path class="cls-1" d="M47.32,80.47l-.22.11Z"/><path class="cls-1" d="M47.82,80.19l-.22.13Z"/><path class="cls-1" d="M45.24,81.28l-.25.06Z"/><path class="cls-1" d="M41.44,81.62l-.28,0Z"/><path class="cls-1" d="M42,81.65h0Z"/><path class="cls-1" d="M40.91,81.56l-.28,0Z"/><path class="cls-1" d="M43.61,81.59l-.26,0Z"/><path class="cls-1" d="M42.38,81.66h0Z"/><path class="cls-1" d="M44.16,81.51l-.26,0Z"/><path class="cls-1" d="M43.06,81.64h0Z"/><path class="cls-1" d="M35,78.76c-.14-.13-.28-.26-.41-.4C34.75,78.5,34.89,78.63,35,78.76Z"/><path class="cls-1" d="M78.17,35.51a10.92,10.92,0,0,0-1.45-2h0A10.92,10.92,0,0,1,78.17,35.51Z"/><path class="cls-1" d="M53.31,74.75,52,76.29l-1.35,1.54L50.5,78l0,0,0,0,26.34-30.2a10.76,10.76,0,0,0,2.65-7.17,10.76,10.76,0,0,1-2.65,7.17Z"/><path class="cls-1" d="M50.1,78.41l-.15.15Z"/><path class="cls-1" d="M78.39,35.94A11.3,11.3,0,0,1,79,37.29,11.3,11.3,0,0,0,78.39,35.94Z"/><path class="cls-1" d="M2.28,38.94a10.07,10.07,0,0,0-.07,2A10.07,10.07,0,0,1,2.28,38.94Z"/><path class="cls-1" d="M79.39,39.17c0,.31.07.63.09.95C79.46,39.8,79.43,39.48,79.39,39.17Z"/><path class="cls-1" d="M2.61,43.26q-.12-.43-.21-.87Q2.49,42.83,2.61,43.26Z"/><path class="cls-1" d="M4.19,46.53c-.2-.28-.38-.57-.56-.86C3.81,46,4,46.25,4.19,46.53Z"/><path class="cls-1" d="M43.35,81.62l-.29,0Z"/><path class="cls-1" d="M42.8,81.65h0Z"/><path class="cls-1" d="M41.7,81.64l-.26,0Z"/><path class="cls-1" d="M41.16,81.59l-.25,0Z"/><path class="cls-1" d="M42.24,81.66h0Z"/><path class="cls-1" d="M44.45,81.46l-.29.05Z"/><path class="cls-1" d="M45.53,81.19l-.29.09Z"/><path class="cls-1" d="M46.58,80.81l-.28.12Z"/><path class="cls-1" d="M49.5,79l-.27.23Z"/><path class="cls-1" d="M47.1,80.58l-.28.13Z"/><path class="cls-1" d="M43.9,81.55l-.29,0Z"/><path class="cls-1" d="M45,81.34l-.29.07Z"/><path class="cls-1" d="M48.09,80l-.27.16Z"/><path class="cls-1" d="M47.6,80.32l-.28.15Z"/><path class="cls-1" d="M46.06,81l-.28.1Z"/><path class="cls-1" d="M50.48,78c-.13.14-.25.28-.38.41C50.23,78.28,50.35,78.14,50.48,78Z"/><path class="cls-1" d="M36.1,79.64l-.19-.14Z"/><path class="cls-1" d="M35.64,79.28l-.18-.14Z"/><path class="cls-1" d="M40.63,81.52l-.25,0Z"/><path class="cls-1" d="M37,80.25l-.21-.12Z"/><path class="cls-1" d="M60.34,11a.66.66,0,0,0-.57-.64c-8.3-.84-11.35-9.24-11.35-9.24A27.09,27.09,0,0,0,40.76,0a18.81,18.81,0,0,0-5.48.76A10,10,0,0,0,30,4.66a11.84,11.84,0,0,0-1.48,2.87,12.94,12.94,0,0,0-.7,3.31c0,.37-.05.73-.05,1.09,0,0,.2,9.62.22,12.38h0L28,27.76S24.88,53.6,24,67.27L34.62,78.36c.13.14.27.27.41.4l.14.13.29.25.18.14a2.88,2.88,0,0,0,.27.22l.19.14.26.19a1.37,1.37,0,0,1,.2.13l.27.17.21.12.27.15.22.11.28.13.22.11.28.11a1.57,1.57,0,0,0,.23.09l.27.11.24.08.28.08.24.07.28.07.25.06.28.06.25,0,.28,0,.25,0,.28,0,.26,0h1.36l.29,0,.26,0,.29,0,.26,0,.29-.05.25,0,.29-.07.25-.06.29-.09.25-.07.28-.1.24-.09.28-.12.24-.1.28-.13.22-.11.28-.15.22-.13.27-.16.21-.14.27-.18.21-.15.26-.2.19-.15L49.5,79l.17-.16a3.45,3.45,0,0,0,.28-.26l.15-.15c.13-.13.25-.27.38-.41l0,0,.12-.14,1.44-9.67c.26-2.68-3.64-8.12-4.3-8.85-9.17-10.08-9.34-15.49-9.34-15.49a26.57,26.57,0,0,0,4.95,8.38c3.78,4.53,8.53,9.08,9.53,12.52.09.46.25.79.48.79s.67-.49,1.17-1.85c.9-2.34-.53-7-1.39-9-2-4.69-3.62-9.49-3.78-14.57-.32-9.67-1.51-10.6-3.74-14.22-3.74-7.44-.58-8.46-.58-8.46a31.89,31.89,0,0,0,5,.46,9,9,0,0,0,3.44-.52,27.72,27.72,0,0,1,4-1.7h0a2.94,2.94,0,0,0,1.14-.21,1.48,1.48,0,0,0,.54-.35,3.58,3.58,0,0,0,.81-1.4A7.86,7.86,0,0,0,60.34,11ZM34.8,6.13a2.22,2.22,0,0,0-.43.23c-2,1.36-2.15,5.35.25,6.81-1.93-.16-2.77-1.35-2.88-3.47a6.19,6.19,0,0,1,.19-1.85A3.48,3.48,0,0,1,33,6a2,2,0,0,1,2.43-.16l.15.12A2.56,2.56,0,0,0,34.8,6.13ZM46.61,10a1.48,1.48,0,0,1-1-.44,3.2,3.2,0,0,1-.72-3.9,3.45,3.45,0,0,1,.67-.91,2.71,2.71,0,0,1,1.1-.7,1.1,1.1,0,0,1,.31,0,1.55,1.55,0,0,1,.92.66,14.14,14.14,0,0,1,1.7,3.51l0,.06C49.25,8.57,47.84,10,46.61,10Z"/><path class="cls-1" d="M49,79.36l-.26.2Z"/><path class="cls-1" d="M35.17,78.89,35,78.76Z"/><path class="cls-1" d="M50,78.56a3.45,3.45,0,0,1-.28.26A3.45,3.45,0,0,0,50,78.56Z"/><path class="cls-1" d="M48.57,79.71l-.27.18Z"/><path class="cls-1" d="M36.56,80a1.37,1.37,0,0,0-.2-.13A1.37,1.37,0,0,1,36.56,80Z"/><path class="cls-1" d="M38,80.75l-.22-.11Z"/><path class="cls-1" d="M39.57,81.29l-.24-.07Z"/><path class="cls-1" d="M38.54,81a1.57,1.57,0,0,1-.23-.09A1.57,1.57,0,0,0,38.54,81Z"/><path class="cls-1" d="M37.53,80.51l-.22-.11Z"/><path class="cls-1" d="M40.1,81.42l-.25-.06Z"/><path class="cls-1" d="M39.05,81.14l-.24-.08Z"/><path class="cls-1" d="M78.35,32c-2.4-2.66-5.43-5.91-8.75-9.27-2.48-2.51-5.14-5.08-7.82-7.5a5,5,0,0,1-1,1.39,4.32,4.32,0,0,1-.39.34c3.89,3.52,7.71,7.35,11.08,10.88l1.79,1.9c1.23,1.32,2.39,2.58,3.44,3.74h0a10.92,10.92,0,0,1,1.45,2c.08.14.15.29.22.43A11.3,11.3,0,0,1,79,37.29a11.15,11.15,0,0,1,.44,1.88c0,.31.07.63.09.95,0,.16,0,.32,0,.48a10.76,10.76,0,0,1-2.65,7.17L50.5,78l0,0c-.13.14-.25.28-.38.41l-.15.15a3.45,3.45,0,0,1-.28.26L49.5,79l-.27.23-.19.15-.26.2-.21.15-.27.18-.21.14-.27.16-.22.13-.28.15-.22.11-.28.13-.24.1-.28.12-.24.09-.28.1-.25.07-.29.09-.25.06-.29.07-.25,0-.29.05-.26,0-.29,0-.26,0-.29,0H41.7l-.26,0-.28,0-.25,0-.28,0-.25,0-.28-.06-.25-.06-.28-.07-.24-.07-.28-.08-.24-.08L38.54,81a1.57,1.57,0,0,1-.23-.09L38,80.75l-.22-.11-.28-.13-.22-.11L37,80.25l-.21-.12L36.56,80a1.37,1.37,0,0,0-.2-.13l-.26-.19-.19-.14a2.88,2.88,0,0,1-.27-.22l-.18-.14-.29-.25L35,78.76c-.14-.13-.28-.26-.41-.4L24,67.27l-1-1.07-1-1.07-14.39-15-1.93-2-.4-.41a12.58,12.58,0,0,1-1-1.21c-.2-.28-.38-.57-.56-.86A11.5,11.5,0,0,1,3,44.3a9.84,9.84,0,0,1-.36-1q-.12-.43-.21-.87l-.09-.49c-.05-.32-.08-.65-.1-1a10.07,10.07,0,0,1,.07-2A10.72,10.72,0,0,1,5,33,232.75,232.75,0,0,1,25.6,12.67c0-.42,0-.68,0-.69v-.05a15,15,0,0,1,.16-2.24q-2.34,1.89-5,4.26c-2.84,2.56-5.7,5.34-8.38,8.05-3.43,3.47-6.57,6.84-9,9.54A13,13,0,0,0,3.6,49.27L33,79.89a13,13,0,0,0,19.13-.47L78.5,49.22A13,13,0,0,0,78.35,32Z"/><path class="cls-1" d="M21.87,38.41a3.68,3.68,0,0,0,2-2,3.86,3.86,0,0,0,0-2.93l-.05-.12a3.9,3.9,0,0,0-2-2,3.72,3.72,0,0,0-2.89,0,3.8,3.8,0,0,0-2,5,3.52,3.52,0,0,0,.41.74L5.59,48.15l1.93,2L18.81,38.29A3.71,3.71,0,0,0,21.87,38.41Zm-3.21-2.84a1.92,1.92,0,0,1,1-2.51,1.9,1.9,0,0,1,1.46,0,2,2,0,0,1,1,2.53,1.86,1.86,0,0,1-1,1,1.91,1.91,0,0,1-2.46-1A.14.14,0,0,1,18.66,35.57Z"/><path class="cls-1" d="M59.64,37.63a3.68,3.68,0,0,0-2,2.11,3.86,3.86,0,0,0,.11,2.93.37.37,0,0,0,0,.11,3.79,3.79,0,0,0,2.06,1.92,3.67,3.67,0,0,0,2.89-.05,3.81,3.81,0,0,0,1.87-5,3.54,3.54,0,0,0-.44-.73l9.07-9.14-1.79-1.9L62.7,37.66A3.71,3.71,0,0,0,59.64,37.63Zm3.3,2.74a1.89,1.89,0,0,1-2.39,2.57,2,2,0,0,1-1.07-1,1.92,1.92,0,0,1,0-1.47,1.85,1.85,0,0,1,1-1.06,1.92,1.92,0,0,1,2.5.94Z"/><path class="cls-1" d="M94.6,18.8h8.66l12.56,22.87L128.31,18.8H137V59.3h-8.73V34.07L115.82,56.94,103.26,34.07V59.3H94.6Z"/><path class="cls-1" d="M165.33,49.69l5.48,5.6C168.1,58.12,162.86,60,158.38,60c-9.08,0-16.15-6.66-16.15-16,0-9.19,6.77-15.85,15.68-15.85,9.54,0,15.14,7.25,15.14,18.74h-22a7.39,7.39,0,0,0,7.25,5.54A11,11,0,0,0,165.33,49.69Zm-14.14-9H164.8a6.35,6.35,0,0,0-6.54-5A7.37,7.37,0,0,0,151.19,40.67Z"/><path class="cls-1" d="M199.11,49.69l5.48,5.6c-2.71,2.83-8,4.71-12.44,4.71C183.08,60,176,53.34,176,44c0-9.19,6.78-15.85,15.68-15.85,9.55,0,15.15,7.25,15.15,18.74h-22a7.4,7.4,0,0,0,7.25,5.54A11,11,0,0,0,199.11,49.69Zm-14.15-9h13.62a6.36,6.36,0,0,0-6.55-5A7.37,7.37,0,0,0,185,40.67Z"/><path class="cls-1" d="M230.53,28.12v7.25c-6.37,0-10.44,3.65-10.44,9.37V59.3h-8.6V28.82h8.6v5.66A11.37,11.37,0,0,1,230.53,28.12Z"/><path class="cls-1" d="M252.1,42.32l11.73,17h-9.9l-7.55-11.44-3.65,4V59.3h-8.61V18.09h8.61V42L254,28.82H264Z"/><path class="cls-1" d="M293.77,41.08V59.3h-8.31V56.23a12.09,12.09,0,0,1-9,3.77C270,60,265,56.11,265,50.28c0-6,5.6-10.14,12.67-10.14a22,22,0,0,1,7.78,1.53v-.59c0-3.24-2-6.07-7-6.07a17.41,17.41,0,0,0-7.9,2.18l-2.89-5.72a28,28,0,0,1,12.73-3.35C288.35,28.12,293.77,33.13,293.77,41.08Zm-8.31,8.61V46.86a19.17,19.17,0,0,0-6.54-1.12c-3.12,0-5.6,1.83-5.6,4.3s2.18,4,5.13,4C281.75,54.05,284.87,52.52,285.46,49.69Z"/><path class="cls-1" d="M317.94,57.35a11.12,11.12,0,0,1-7,2.65c-5.37,0-9.14-3.83-9.14-9.31V35.78h-4.18v-7h4.18V20.45H310v8.37h6.61v7H310V49.34c0,2,1.3,3.41,2.89,3.41a4.43,4.43,0,0,0,2.95-1Z"/></g></g></svg>