<svg xmlns="http://www.w3.org/2000/svg" viewBox="0 0 350.53 110"><defs><style>.cls-1{fill:#595959;}.cls-2{fill:#ef5025;}.cls-3{fill:#606060;}</style></defs><g id="Capa_2" data-name="Capa 2"><g id="Capa_1-2" data-name="Capa 1"><path class="cls-1" d="M153,64.41H132.94l-2.89,7.08H119.23L137.6,26.42h10.82l18.37,45.07H155.9Zm-3.34-8.2L143,39.74l-6.69,16.47Z"/><path class="cls-1" d="M191.71,36.79v8.07c-7.09,0-11.61,4.06-11.61,10.43v16.2h-9.58V37.58h9.58v6.29A12.65,12.65,0,0,1,191.71,36.79Z"/><path class="cls-1" d="M215.71,52.6l13.06,18.89h-11l-8.4-12.73-4.07,4.4v8.33h-9.57V25.64h9.57V52.2l12.6-14.62h11Z"/><path class="cls-1" d="M262.09,51.22V71.49h-9.25V68.08a13.5,13.5,0,0,1-10,4.2c-7.22,0-12.79-4.33-12.79-10.83,0-6.69,6.23-11.28,14.1-11.28a24.37,24.37,0,0,1,8.66,1.71v-.66c0-3.61-2.23-6.76-7.81-6.76a19.36,19.36,0,0,0-8.79,2.43L233,40.53a31.1,31.1,0,0,1,14.17-3.74C256.05,36.79,262.09,42.37,262.09,51.22Zm-9.25,9.58V57.65a21.42,21.42,0,0,0-7.28-1.25c-3.48,0-6.23,2-6.23,4.79s2.42,4.46,5.7,4.46C248.71,65.65,252.18,64,252.84,60.8Z"/><path class="cls-1" d="M301.05,49.91V71.49H291.8V51.94c0-4.2-2.62-7.08-6.43-7.08-4,0-7.08,2.88-7.08,6.56l-.07-.2V71.49h-9.58V37.58h9.58v4.26a12.11,12.11,0,0,1,10.24-5.05C295.8,36.79,301.05,42.23,301.05,49.91Z"/><path class="cls-1" d="M337.85,51.22V71.49H328.6V68.08a13.5,13.5,0,0,1-10,4.2c-7.22,0-12.79-4.33-12.79-10.83,0-6.69,6.23-11.28,14.1-11.28a24.42,24.42,0,0,1,8.66,1.71v-.66c0-3.61-2.23-6.76-7.81-6.76A19.36,19.36,0,0,0,312,46.89l-3.21-6.36A31.07,31.07,0,0,1,323,36.79C331.81,36.79,337.85,42.37,337.85,51.22ZM328.6,60.8V57.65a21.42,21.42,0,0,0-7.28-1.25c-3.48,0-6.24,2-6.24,4.79s2.43,4.46,5.71,4.46C324.46,65.65,327.94,64,328.6,60.8Z"/><path class="cls-1" d="M123.28,87.56a4.17,4.17,0,0,0,1.77.43,2.09,2.09,0,0,0,1.27-.33,1.07,1.07,0,0,0,.43-.89,1,1,0,0,0-.37-.86,2.5,2.5,0,0,0-.9-.48c-.36-.11-.71-.24-1.07-.37a2.3,2.3,0,0,1-.9-.6,1.4,1.4,0,0,1-.37-1,1.71,1.71,0,0,1,.58-1.38,2.37,2.37,0,0,1,1.58-.49,5.56,5.56,0,0,1,1.85.3l.1,0-.19.91a4.35,4.35,0,0,0-1.58-.33,1.61,1.61,0,0,0-1,.23,1,1,0,0,0-.27.77.69.69,0,0,0,.37.58,3.78,3.78,0,0,0,.9.42c.35.12.71.26,1.07.41a2.37,2.37,0,0,1,.9.71,1.82,1.82,0,0,1,.37,1.15,1.93,1.93,0,0,1-.7,1.57,2.93,2.93,0,0,1-1.92.57,4.22,4.22,0,0,1-2.17-.55Z"/><path class="cls-1" d="M134.17,81.56a2.11,2.11,0,0,1,2,1,3.74,3.74,0,0,1,2.24-1,2.46,2.46,0,0,1,1.67.58,2.11,2.11,0,0,1,.64,1.67v5h-1V84.25a1.92,1.92,0,0,0-.39-1.31,1.31,1.31,0,0,0-1-.45,2.91,2.91,0,0,0-1.81.71,2.6,2.6,0,0,1,.07.61v5h-1V84.25a1.87,1.87,0,0,0-.4-1.31,1.31,1.31,0,0,0-1-.45,2.67,2.67,0,0,0-.78.11,2.11,2.11,0,0,0-.53.23c-.11.08-.26.19-.44.34v5.66h-1.07V81.72h.69l.18.73c.24-.2.42-.35.55-.44a2.71,2.71,0,0,1,.63-.29A3,3,0,0,1,134.17,81.56Z"/><path class="cls-1" d="M147.76,84.58h.58a2.89,2.89,0,0,0-.33-1.69,1.92,1.92,0,0,0-1.45-.39,5.39,5.39,0,0,0-1.91.3l-.19-.82a7.61,7.61,0,0,1,2.47-.4,2.21,2.21,0,0,1,2.5,2.5v4.75h-.62l-.37-.84a4.55,4.55,0,0,1-1.13.73,2.93,2.93,0,0,1-1.11.19,2,2,0,0,1-1.55-.58,2.25,2.25,0,0,1-.55-1.56Q144.1,84.58,147.76,84.58Zm.59.89h-.64a4.83,4.83,0,0,0-2,.29.94.94,0,0,0-.54.89,1.52,1.52,0,0,0,.31,1,1,1,0,0,0,.82.38,2.15,2.15,0,0,0,1-.23,5.21,5.21,0,0,0,1.09-.82Z"/><path class="cls-1" d="M154.51,83.4v5.43h-1.07V81.72h.69l.17.84a6.72,6.72,0,0,1,1.13-.76,2.7,2.7,0,0,1,1.47-.19l.2,0-.17,1a2.59,2.59,0,0,0-.7-.08A2.52,2.52,0,0,0,154.51,83.4Z"/><path class="cls-1" d="M160.31,87.29V82.57h-1v-.85h1v-2h1.07v2h1.74v.85h-1.75v4.52a.85.85,0,0,0,1,1A4,4,0,0,0,163,88l.16.77a4.06,4.06,0,0,1-1.2.18,2,2,0,0,1-1.16-.37A1.44,1.44,0,0,1,160.31,87.29Z"/><path class="cls-1" d="M175.51,78.88h1.07v10H176L175.6,88a4.11,4.11,0,0,1-2.28.92c-1.7,0-2.56-1.22-2.56-3.68a3.84,3.84,0,0,1,.91-2.91,2.6,2.6,0,0,1,1.84-.76,3.38,3.38,0,0,1,2,.7Zm0,8.19v-3.7a2.48,2.48,0,0,0-.79-.61,2,2,0,0,0-.9-.26,1.72,1.72,0,0,0-1.55.66,3.72,3.72,0,0,0-.44,2,4.12,4.12,0,0,0,.44,2.11,1.3,1.3,0,0,0,1.12.71A3.3,3.3,0,0,0,175.51,87.07Z"/><path class="cls-1" d="M185.24,88a2.83,2.83,0,0,1-2.29,1,2.74,2.74,0,0,1-2.27-1,4.06,4.06,0,0,1-.79-2.68,4.36,4.36,0,0,1,.76-2.71,2.64,2.64,0,0,1,2.24-1,2.87,2.87,0,0,1,2.31,1,4.77,4.77,0,0,1,0,5.38ZM185,85.33a3.46,3.46,0,0,0-.54-2.1,1.83,1.83,0,0,0-1.58-.73,1.6,1.6,0,0,0-1.47.69A4.06,4.06,0,0,0,181,85.3c0,1.79.66,2.69,2,2.69a1.81,1.81,0,0,0,1.54-.65A3.3,3.3,0,0,0,185,85.33Z"/><path class="cls-1" d="M193.56,87.72l.21.84a7,7,0,0,1-2,.34,2.71,2.71,0,0,1-2.29-1,4.36,4.36,0,0,1-.77-2.75,3.93,3.93,0,0,1,.8-2.67,2.93,2.93,0,0,1,2.34-.91,7.35,7.35,0,0,1,1.88.34l-.43.82a5.12,5.12,0,0,0-1.41-.22,1.78,1.78,0,0,0-1.55.64,3.37,3.37,0,0,0-.48,2c0,1.86.67,2.8,2,2.8A6.21,6.21,0,0,0,193.56,87.72Z"/><path class="cls-1" d="M201,87v-5.3h1.08v7.11h-.62l-.36-.84a3.48,3.48,0,0,1-2.17.92,2.06,2.06,0,0,1-1.59-.6,2.47,2.47,0,0,1-.55-1.71V81.72h1.07v4.71a2.21,2.21,0,0,0,.25,1.21A.93.93,0,0,0,199,88a2.51,2.51,0,0,0,1.18-.31A2.87,2.87,0,0,0,201,87Z"/><path class="cls-1" d="M209.11,81.56a2.11,2.11,0,0,1,1.95,1,3.74,3.74,0,0,1,2.24-1,2.46,2.46,0,0,1,1.67.58,2.11,2.11,0,0,1,.64,1.67v5h-1V84.25a1.92,1.92,0,0,0-.4-1.31,1.31,1.31,0,0,0-1-.45,2.91,2.91,0,0,0-1.81.71,2.6,2.6,0,0,1,.07.61v5h-1V84.25a1.87,1.87,0,0,0-.4-1.31,1.3,1.3,0,0,0-1-.45,2.72,2.72,0,0,0-.78.11,2.29,2.29,0,0,0-.53.23c-.11.08-.26.19-.44.34v5.66h-1.07V81.72h.69l.18.73c.24-.2.42-.35.55-.44a2.71,2.71,0,0,1,.63-.29A3,3,0,0,1,209.11,81.56Z"/><path class="cls-1" d="M224.56,85.5H220a2.49,2.49,0,0,0,.65,1.94,2.36,2.36,0,0,0,1.63.56,2.81,2.81,0,0,0,.69,0l.38-.09.25-.08.61-.19.17.83a7.29,7.29,0,0,1-2.22.49,3.14,3.14,0,0,1-2.34-.88,3.67,3.67,0,0,1-.88-2.68,4.19,4.19,0,0,1,.83-2.78,2.61,2.61,0,0,1,2.1-1,2.49,2.49,0,0,1,2,.82,3.33,3.33,0,0,1,.71,2.23Q224.59,85,224.56,85.5Zm-4.47-.81h3.47a2.94,2.94,0,0,0-.37-1.62,1.4,1.4,0,0,0-1.28-.57,1.55,1.55,0,0,0-1.35.61A3,3,0,0,0,220.09,84.69Z"/><path class="cls-1" d="M229.07,83.18v5.65H228V81.72h.68l.17.7c.22-.17.4-.31.54-.4a2.34,2.34,0,0,1,.66-.29,3,3,0,0,1,1-.15,2.29,2.29,0,0,1,1.63.6,2.25,2.25,0,0,1,.65,1.72v4.93h-1.07V84.21c0-1.15-.48-1.72-1.43-1.72A2.33,2.33,0,0,0,229.07,83.18Z"/><path class="cls-1" d="M237.47,87.29V82.57h-1v-.85h1v-2h1.07v2h1.74v.85h-1.75v4.52a.85.85,0,0,0,1,1,4.12,4.12,0,0,0,.7-.09l.16.77a4.07,4.07,0,0,1-1.21.18,2,2,0,0,1-1.15-.37A1.44,1.44,0,0,1,237.47,87.29Z"/><path class="cls-1" d="M251.62,81.56a2.11,2.11,0,0,1,1.95,1,3.71,3.71,0,0,1,2.23-1,2.44,2.44,0,0,1,1.67.58,2.12,2.12,0,0,1,.65,1.67v5h-1V84.25a1.92,1.92,0,0,0-.39-1.31,1.32,1.32,0,0,0-1.05-.45,2.89,2.89,0,0,0-1.8.71,3.26,3.26,0,0,1,.07.61v5h-1V84.25a1.92,1.92,0,0,0-.39-1.31,1.32,1.32,0,0,0-1-.45,2.77,2.77,0,0,0-.78.11,2,2,0,0,0-.52.23,5.31,5.31,0,0,0-.45.34v5.66h-1.06V81.72h.68l.19.73c.23-.2.42-.35.54-.44a2.63,2.63,0,0,1,.64-.29A2.91,2.91,0,0,1,251.62,81.56Z"/><path class="cls-1" d="M265.2,84.58h.58a3,3,0,0,0-.32-1.69A1.93,1.93,0,0,0,264,82.5a5.35,5.35,0,0,0-1.91.3l-.2-.82a7.65,7.65,0,0,1,2.47-.4,2.21,2.21,0,0,1,2.51,2.5v4.75h-.63l-.37-.84a4.21,4.21,0,0,1-1.13.73,2.88,2.88,0,0,1-1.1.19,2,2,0,0,1-1.55-.58,2.21,2.21,0,0,1-.56-1.56Q261.54,84.58,265.2,84.58Zm.6.89h-.64a4.77,4.77,0,0,0-2,.29.93.93,0,0,0-.55.89,1.58,1.58,0,0,0,.31,1,1,1,0,0,0,.82.38,2.2,2.2,0,0,0,1-.23A5.21,5.21,0,0,0,265.8,87Z"/><path class="cls-1" d="M272,83.18v5.65h-1.06V81.72h.68l.17.7.53-.4a2.58,2.58,0,0,1,.67-.29,3,3,0,0,1,1-.15,2.29,2.29,0,0,1,1.63.6,2.25,2.25,0,0,1,.65,1.72v4.93h-1.07V84.21c0-1.15-.48-1.72-1.44-1.72A2.36,2.36,0,0,0,272,83.18Z"/><path class="cls-1" d="M283.26,84.58h.58a2.89,2.89,0,0,0-.33-1.69c-.21-.26-.7-.39-1.45-.39a5.34,5.34,0,0,0-1.9.3L280,82a7.65,7.65,0,0,1,2.47-.4,2.21,2.21,0,0,1,2.51,2.5v4.75h-.63l-.37-.84a4.21,4.21,0,0,1-1.13.73,2.88,2.88,0,0,1-1.1.19,2,2,0,0,1-1.55-.58,2.21,2.21,0,0,1-.56-1.56Q279.6,84.58,283.26,84.58Zm.6.89h-.64a4.77,4.77,0,0,0-2,.29.93.93,0,0,0-.55.89,1.58,1.58,0,0,0,.31,1,1,1,0,0,0,.82.38,2.2,2.2,0,0,0,1-.23,5.21,5.21,0,0,0,1.09-.82Z"/><path class="cls-1" d="M293,88.08a3.87,3.87,0,0,1-2.18.85q-2.56,0-2.56-3.68a3.85,3.85,0,0,1,.91-2.93,2.79,2.79,0,0,1,2-.74,2.34,2.34,0,0,1,1.94,1l.37-.92h.63v7.48a3.1,3.1,0,0,1-.77,2.3,2.85,2.85,0,0,1-2.08.75,3.68,3.68,0,0,1-1.19-.17c-.35-.11-.72-.24-1.1-.38l.2-.76a6.69,6.69,0,0,0,2,.39,1.88,1.88,0,0,0,1.33-.5,2,2,0,0,0,.53-1.51Zm0-1V84.39a1.79,1.79,0,0,0-.56-1.36,1.67,1.67,0,0,0-1.14-.53,1.75,1.75,0,0,0-1.55.65,3.79,3.79,0,0,0-.44,2.07c0,1.86.52,2.78,1.57,2.78A3.27,3.27,0,0,0,293,87.05Z"/><path class="cls-1" d="M303,85.5h-4.54a2.49,2.49,0,0,0,.65,1.94,2.38,2.38,0,0,0,1.63.56,3,3,0,0,0,.7,0l.37-.09.25-.08.61-.19.17.83a7.18,7.18,0,0,1-2.21.49,3.17,3.17,0,0,1-2.35-.88,3.67,3.67,0,0,1-.88-2.68,4.25,4.25,0,0,1,.83-2.78,2.63,2.63,0,0,1,2.1-1,2.49,2.49,0,0,1,2,.82,3.33,3.33,0,0,1,.71,2.23Q303,85,303,85.5Zm-4.46-.81H302a3,3,0,0,0-.37-1.62,1.43,1.43,0,0,0-1.29-.57,1.56,1.56,0,0,0-1.35.61A2.92,2.92,0,0,0,298.55,84.69Z"/><path class="cls-1" d="M309.45,81.56a2.11,2.11,0,0,1,1.95,1,3.74,3.74,0,0,1,2.23-1,2.42,2.42,0,0,1,1.67.58,2.09,2.09,0,0,1,.65,1.67v5h-1V84.25a1.92,1.92,0,0,0-.39-1.31,1.31,1.31,0,0,0-1-.45,2.91,2.91,0,0,0-1.81.71,2.6,2.6,0,0,1,.07.61v5h-1V84.25a1.92,1.92,0,0,0-.39-1.31,1.31,1.31,0,0,0-1-.45,2.67,2.67,0,0,0-.78.11,2.11,2.11,0,0,0-.53.23c-.11.08-.26.19-.44.34v5.66h-1.07V81.72h.68l.19.73c.24-.2.42-.35.55-.44a2.52,2.52,0,0,1,.63-.29A2.91,2.91,0,0,1,309.45,81.56Z"/><path class="cls-1" d="M324.9,85.5h-4.54a2.45,2.45,0,0,0,.65,1.94,2.35,2.35,0,0,0,1.62.56,2.86,2.86,0,0,0,.7,0l.38-.09.25-.08.61-.19.17.83a7.29,7.29,0,0,1-2.22.49,3.17,3.17,0,0,1-2.35-.88,3.71,3.71,0,0,1-.88-2.68,4.25,4.25,0,0,1,.83-2.78,2.65,2.65,0,0,1,2.11-1,2.46,2.46,0,0,1,2,.82,3.28,3.28,0,0,1,.71,2.23C324.92,84.89,324.91,85.18,324.9,85.5Zm-4.47-.81h3.47a2.94,2.94,0,0,0-.37-1.62,1.42,1.42,0,0,0-1.29-.57,1.53,1.53,0,0,0-1.34.61A3,3,0,0,0,320.43,84.69Z"/><path class="cls-1" d="M329.4,83.18v5.65h-1.06V81.72H329l.17.7.53-.4a2.64,2.64,0,0,1,.66-.29,3.12,3.12,0,0,1,1-.15,2.29,2.29,0,0,1,1.63.6,2.25,2.25,0,0,1,.65,1.72v4.93h-1.07V84.21c0-1.15-.48-1.72-1.44-1.72A2.36,2.36,0,0,0,329.4,83.18Z"/><path class="cls-1" d="M337.81,87.29V82.57h-1v-.85h1v-2h1.07v2h1.73v.85h-1.75v4.52a.86.86,0,0,0,1,1,4.12,4.12,0,0,0,.7-.09l.15.77a4,4,0,0,1-1.2.18,2,2,0,0,1-1.15-.37A1.44,1.44,0,0,1,337.81,87.29Z"/><path class="cls-2" d="M41.41,64.81l.07,0a2.58,2.58,0,0,0,3.4-1.32,2.52,2.52,0,0,0,0-2,2.68,2.68,0,0,0-1.41-1.42,2.61,2.61,0,0,0-2,0,2.45,2.45,0,0,0-1.41,1.36A2.58,2.58,0,0,0,41.41,64.81Z"/><path class="cls-2" d="M110.62,56.31l-1.79,2c-3.24,3.59-8,8.51-11.81,10.49l-.19.1-.45.22c-.39.17-.79.33-1.19.46a2.16,2.16,0,0,1-.64,0c.89-2.42,1.77-4.8,2.63-7.12a.49.49,0,0,0-.22-.59c-1.65-.94-3-.5-4.47,0A3.79,3.79,0,0,1,88,60.25s-4.49-8.9-5.23-11.48,2.94-4.19.3-9.26c-1.16,1.13-3.19,3.15-3.75,3.71a2,2,0,0,1-.43.33,5.26,5.26,0,0,1-4.09.3c-12.83-3.49-24.35-6.54-37.17-10a5.07,5.07,0,0,0-4.28.57Q21.11,41.58,8.76,48.55a6.35,6.35,0,0,1-3.07.82H3.08a14.51,14.51,0,0,1,3.66-7.9C19.1,27.88,41.11,5.25,52.42,3.11A7.91,7.91,0,0,1,53.9,3C56.53,3,59.7,4.11,63.19,6L51.41,18.93a5.14,5.14,0,0,0-7.68,2.3,5,5,0,0,0,.12,3.89,5.14,5.14,0,0,0,2.72,2.65l.15.07a5.2,5.2,0,0,0,4-.06A4.93,4.93,0,0,0,53.38,25a5,5,0,0,0-.23-4.12l13.16-13c12.41,8,27.73,23.88,37.07,34.2a14.52,14.52,0,0,1,2.85,14.74c.93-.8,2.16-1.9,3.78-3.4a17.4,17.4,0,0,0-4.43-13.33A312.49,312.49,0,0,0,80.38,15C68.79,4.89,60.13,0,53.9,0h0a11.11,11.11,0,0,0-2,.18C46.27,1.24,38.46,6.35,28,15.79,19.26,23.65,10.42,33,4.54,39.48a17.54,17.54,0,0,0,.32,23.89l39.65,41.26A17.48,17.48,0,0,0,70.29,104L81.9,90.7l-2.63-1.52L68.05,102.05l-.16.18c-.58-5.46.6-11.87-.12-17.57-.26.18-4.83,4.56-6.83,6.48a3.65,3.65,0,0,1-2.2,1l-14.6,1.42s4,6.25,8.32,12.69a14.42,14.42,0,0,1-5.81-3.69l-23.07-24-.41-.44L37.82,64.57a5,5,0,0,1,2.7-6.82,5.24,5.24,0,0,1,3.95.08l.15.07a5.14,5.14,0,0,1,2.63,2.74,5,5,0,0,1,0,3.89,5.12,5.12,0,0,1-6.75,2.62,4.82,4.82,0,0,1-1-.57L25.68,80.75l11,11.42c4.4-.34,17-1.46,21-1.82a3.73,3.73,0,0,0,2.19-1c1.67-1.57,5.19-4.91,7.25-7.3a1.82,1.82,0,0,0,.3-2.54c-1.63-2.72-7.45-14.56-8.64-17a.5.5,0,0,1,.22-.66.49.49,0,0,1,.67.19c1.29,2.21,7.3,12.53,10.14,17.35a5.67,5.67,0,0,0,1.85,1.92c2.37,1.45,4.75,2.9,7.13,4.33l2.36,1.41,2.6,1.54,4.73,2.78a1.55,1.55,0,0,0,.55.18,1.84,1.84,0,0,0,1-.15,47.23,47.23,0,0,0,13.12-10.17,38.44,38.44,0,0,0,9.21-20.38c.16-1.38.24-2.66.26-3.82A1.13,1.13,0,0,0,110.62,56.31ZM51,24.06a2.51,2.51,0,0,1-1.37,1.4,2.63,2.63,0,0,1-3.43-1.34,2.47,2.47,0,0,1-.06-2,2.58,2.58,0,0,1,3.35-1.43l.08,0A2.59,2.59,0,0,1,51,24.06ZM83.17,67.13a2.61,2.61,0,0,1,1.32-3.73l2.85,5C85.18,69.17,83.85,68.67,83.17,67.13Z"/><path class="cls-2" d="M84.57,48.89s1.79,3.84,2.31,4.86c0-2.44,3.56-4.64,1-9.59L85,47A1.81,1.81,0,0,0,84.57,48.89Z"/><path class="cls-3" d="M350.53,32.11a6.37,6.37,0,1,1-12.73,0,6.37,6.37,0,1,1,12.73,0Zm-6.37,4.75c2.87,0,4.49-2.09,4.49-4.75s-1.62-4.76-4.49-4.76-4.48,2.09-4.5,4.76S341.3,36.86,344.16,36.86ZM345.69,33c2.34-.53,1.87-4.13-1-4.13h-3.08v6.47h1.71v-2h.6l1.53,2h1.83V35Zm-1-2.59a.74.74,0,1,1,0,1.48h-1.37V30.4Z"/></g></g></svg>