<svg xmlns="http://www.w3.org/2000/svg" viewBox="0 0 90.54 78.58"><defs><style>.cls-1,.cls-2{fill:#999;}.cls-2{fill-rule:evenodd;}</style></defs><g id="Capa_2" data-name="Capa 2"><g id="Capa_1-2" data-name="Capa 1"><path class="cls-1" d="M38.27,2.59h3.54c5-2.56,11.08,0,11.08,0A11.23,11.23,0,0,0,41.64.77a12.63,12.63,0,0,0-3.37,1.82M24.89,26.43v-5a7.34,7.34,0,0,0,0,5m29.51,16h-2c-2.22,2.16-4.68,4.39-7.41,6.7a97.61,97.61,0,0,0,9.44-6.7m0,0h10V32.46a59.15,59.15,0,0,1-10,9.95m-29.51-9V31.91c-8.16,6.15,0,10.5,0,10.5a7.21,7.21,0,0,1,0-9m20-17.75a5.56,5.56,0,0,0-2-1.22,13.15,13.15,0,0,0,2.28,2.76,2.43,2.43,0,0,0-.28-1.54m.28,1.54a8.78,8.78,0,0,1-.24,1.45,13.12,13.12,0,0,0,1.45,1.13,9.83,9.83,0,0,0,.29-1.19,10.39,10.39,0,0,1-1.5-1.39m-5.37-4.9c.27.58.66,1.13,1,1.76a7.63,7.63,0,0,1,2.06.37,18.46,18.46,0,0,1-1-1.86,10.59,10.59,0,0,0-2.09-.27M27.54,30.58s-.11-.15-.24-.36l-.07,0c.15.16.31.31.31.31m-.31-.31a11.36,11.36,0,0,1-2.34-3.83v5.48a19,19,0,0,1,2.34-1.65m11-27.67H24.89V21.41c.88-2.43,3.19-5.08,8.27-7.56a15.22,15.22,0,0,1,6.6-1.51A23.34,23.34,0,0,1,38.25,8s-2.63-.58-2.79-1.21c0,0,.14-2.2,2.81-4.24M56.86,17.78S54,16.2,53.06,13.84a5.19,5.19,0,0,1,.46-4.49,20.24,20.24,0,0,0,3.34,8.43m-2.72-13a14.83,14.83,0,0,0-6,.14l-3-1a9.7,9.7,0,0,1,9,.82M47.77,6.52c5.17-.75,6.34,1,6.34,1a8.81,8.81,0,0,0-3.58.13ZM47.09,42.4H44C54.6,36.88,50.28,31,50.28,31s6.36,5.66-3.19,11.37m2.06-10.88s2.13-2.34.47-4.58c-.71-1-2.93-1.44-4.87.19s-3.09,5.15.48,6.54c-4.2.18-4.89-4.46-1.53-7.36,2.63-2.28,5.68-1.7,6.68-.36,1.45,1.93.49,4-1.23,5.57m-7,2.85a15.53,15.53,0,0,0-8.18,8H30.73s4.05-6.88,11.43-8M30.54,26.55s-5-5.32,7.69-8.65c-8.95,4.42-7.69,8.65-7.69,8.65m3-5.07s1.88,5.84-2.87,8.8a26.08,26.08,0,0,0,2.87-8.8m30.81-5.34V2.59H41.81A9.46,9.46,0,0,0,38.05,6a11.14,11.14,0,0,0,2,1.12,27.24,27.24,0,0,0,1.77,5.51,7,7,0,0,1,4.52,2.54,5.37,5.37,0,0,1,.26,3.48c.15.09.22.26.37.35a9.29,9.29,0,0,0,4.21-3.27s-.21,3.07-4.1,4.72c-.31-.16-.47-.43-.77-.61-.79,2.69-2.83,6.23-7.57,10-3.43-1.1-4-3.14-4-3.14a5.57,5.57,0,0,0,4,1.74,16.8,16.8,0,0,0,6.21-9.76,16.65,16.65,0,0,1-4.1-4.59,14.56,14.56,0,0,0-6.9,1.42c-11.76,5.27-7.63,13.07-6.59,14.7a37.06,37.06,0,0,1,3.63-1.92,18.6,18.6,0,0,0-6,5.15v9H52.37c6.07-5.91,10-11.09,12-15.27V18.57c-1.4-1.06-3.64-1.52-7-1a15.81,15.81,0,0,1,7-1.43m0,0v2.43c2,1.52,2,4.52,0,8.57v5.32c7.19-9.24,6.46-16,0-16.32"/><path class="cls-1" d="M90.44,77.84c-.79-.13-1.71-1-2.83-2.68l-2-3.28c2.06-.38,3-1.53,3-3.35A2.69,2.69,0,0,0,87.18,66a5.74,5.74,0,0,0-2.93-.67c-.48,0-1.17,0-2.09.06a35.92,35.92,0,0,1-4.4-.06h-.13v.41s2.1.35,2.1,1c0,.13,0,.76,0,1.66v7.27A5.25,5.25,0,0,1,79.64,77c-.15.49-1.7.84-1.7.84l-.09.48H78c1-.08,2-.13,3-.13s1.94.05,2.87.13h.14v-.44a13.29,13.29,0,0,1-1.93-.75c-.21-.15-.25-.51-.25-1,0-.1,0-.43,0-.84s0-.76,0-1.06v-2h1.32a62.21,62.21,0,0,1,4,6.09l0,.07s1.1-.07,1.63-.07,1.09,0,1.54.06h.13v-.5Zm-7.27-6.79H81.9V66.53l1.81,0c1.86,0,2.69.74,2.7,2.27a1.93,1.93,0,0,1-1,1.87,5.1,5.1,0,0,1-2.28.4"/><path class="cls-1" d="M9.9,72.31A5.08,5.08,0,0,0,8,71.59a4.85,4.85,0,0,0,1.49-.66,2.75,2.75,0,0,0,1.28-2.21,2.94,2.94,0,0,0-1.39-2.64,5.32,5.32,0,0,0-3-.73l-3.13.06h-1A21.91,21.91,0,0,1,0,65.34v.45s1.94.26,2.11,1.18c0,.13.08,9.52-.08,9.85-.38.81-2,1.07-2,1.07v.47s1.22-.12,2.58-.1h1L7,78.34a5.17,5.17,0,0,0,3-.82,3.08,3.08,0,0,0,1.39-2.68A2.81,2.81,0,0,0,9.9,72.31M4.11,68.49c0-.62,0-1.22,0-2,.42,0,.95,0,1.56,0,1.93,0,2.79.65,2.81,2.27s-.93,2.18-3,2.2H4.13Zm1.51,8.77h0v0m-.1-.1h0l-1.33,0c0-.41,0-.74,0-1.11V72.28H5.37c2.54,0,3.69.86,3.7,2.61S8,77.14,5.52,77.16"/><path class="cls-1" d="M21.39,65.12a6.23,6.23,0,0,0-4.79,1.93A7,7,0,0,0,14.84,72a6.62,6.62,0,0,0,1.71,4.68,5.82,5.82,0,0,0,4.53,1.93h0a5.82,5.82,0,0,0,4.72-2.15,7.58,7.58,0,0,0,1.64-5,6.33,6.33,0,0,0-1.62-4.51,5.84,5.84,0,0,0-4.44-1.79M25,72.34a6.58,6.58,0,0,1-.83,3.47,3.19,3.19,0,0,1-2.92,1.62,3.36,3.36,0,0,1-3.22-2.19,9.9,9.9,0,0,1-.78-4.2,5.36,5.36,0,0,1,1-3.29,3.43,3.43,0,0,1,2.94-1.48c2.56,0,3.83,2,3.85,6.07Z"/><path class="cls-1" d="M38,76.94H34.29V68.7c0-1,0-1.51,0-1.76.06-.83,2.24-1.17,2.24-1.17v-.43s-2.25.14-3.29.14-3.18-.14-3.18-.14v.42s2.11.35,2.11,1.14c0,.14,0,.74,0,1.64v7a3,3,0,0,1-.13,1.33c-.4.78-2,1-2,1v.51h.14c1.34-.08,2.87-.12,4.52-.12s3.46,0,5.37.12h.12l.17-3.45h-.54s-.27,2.11-1.91,2"/><path class="cls-1" d="M49.11,61.9h0a1,1,0,0,0-1-1,1.35,1.35,0,0,0-.94.48l-2.71,3.14h1l3.09-1.76a1.1,1.1,0,0,0,.55-.87Z"/><path class="cls-1" d="M46,65.51c-.75,0-1.74-.05-3-.15l-.14,0v.43s1.75.39,2,1.3a13.66,13.66,0,0,1,.09,2s.06,3,0,4.61c0,2.18-.1,3.15-.65,3.6a3.62,3.62,0,0,1-1.46.53v.53H43c1.18-.11,2.18-.16,3-.16s1.69,0,2.92.16H49v-.53a4.5,4.5,0,0,1-1.47-.55c-.39-.28-.64-1.4-.62-3.58,0-.3,0-4.44,0-4.6,0-.82,0-1.58.06-2,.12-1,2-1.29,2-1.29v-.42H48.9c-1.3.1-2.27.16-2.92.15"/><path class="cls-1" d="M63.71,65.79l.1,0v-.43l-.14,0a14.66,14.66,0,0,1-1.87.11,19,19,0,0,1-2.13-.12h-.14v.42l.09,0c.53.16,1.27.39,1.24.65-.23,1.17-2.34,6.57-2.89,7.9-.41-1-3.13-7.67-3.12-7.83s-.16-.37,1.46-.72l.09,0v-.43s-1.81.13-2.68.13a16.42,16.42,0,0,1-2.8-.13v.42s1.28.32,1.65,1.16c1.33,3,2.87,6.93,4.51,11.58l0,.08h.63l0-.08c1.22-3.35,3.8-10,4.57-11.62a2,2,0,0,1,1.38-1.09"/><path class="cls-1" d="M70.22,65l0-.08h-.93l0,.08c-2,4.8-2.68,6.25-4.4,10.25a16.24,16.24,0,0,1-.65,1.54c-.35.66-1.6,1-1.6,1v.51h.14a20.32,20.32,0,0,1,2.21-.12,21.25,21.25,0,0,1,2.26.12h.15v-.51l-1.65-.63c.55-1.43.91-2.35,1.24-3.14l2.17,0,2.41,0a30,30,0,0,1,1.07,3.11,12.91,12.91,0,0,1-1.8.56l-.1,0v.53h.14c.87-.08,1.8-.12,2.78-.12s2,0,3,.12h.14v-.51a4.7,4.7,0,0,1-1.51-.69,6.71,6.71,0,0,1-.71-1.51c-2.67-6.47-3.65-8.93-4.3-10.62m-3,8.15,2-4.94,1.86,4.92Z"/><path class="cls-1" d="M12,57.66c-.16.35-.28.39-.28.39a2.17,2.17,0,0,1-.91.21A2.21,2.21,0,0,1,9,57.57a3.23,3.23,0,0,1-.59-2A2.74,2.74,0,0,1,9,53.71,2.33,2.33,0,0,1,10.92,53c.57,0,.79.08.95.24a3.3,3.3,0,0,1,.42.94h.19v-.07c0-.29,0-.56,0-.83s0-.53,0-.78v-.06h-.05a6.58,6.58,0,0,0-1.4-.13,4.12,4.12,0,0,0-2.69.93,3.2,3.2,0,0,0-1.2,2.53,3,3,0,0,0,1.09,2.42,3.93,3.93,0,0,0,2.55.83,5.13,5.13,0,0,0,1.69-.25l.06,0s0-.62,0-1.67h-.22s-.14.37-.25.64"/><path class="cls-1" d="M16.5,52.32a3.11,3.11,0,0,0-2.39,1,3.49,3.49,0,0,0-.88,2.46,3.31,3.31,0,0,0,.85,2.34,2.89,2.89,0,0,0,2.26,1h0A2.89,2.89,0,0,0,18.71,58a3.84,3.84,0,0,0,.82-2.5,3.23,3.23,0,0,0-.81-2.26,2.94,2.94,0,0,0-2.22-.89m1.81,3.61a3.38,3.38,0,0,1-.41,1.73,1.58,1.58,0,0,1-1.46.81,1.68,1.68,0,0,1-1.61-1.09,5,5,0,0,1-.39-2.1,2.74,2.74,0,0,1,.48-1.64,1.72,1.72,0,0,1,1.47-.74c1.28,0,1.92,1,1.92,3Z"/><path class="cls-2" d="M26.55,52.53l-.53.18c-.28.12-.27.46-.28.62-.06.85-.06,1.71-.06,2.86,0,.24,0,1,0,2.7h-.58c-.61-.78-1.06-1.36-1.84-2.43-.68-.9-1.06-1.5-1.75-2.47l-.09-.15s0,1.48,0,2.1,0,1.76.08,2.25.61.38.81.44v.2a13.79,13.79,0,0,0-2.57,0v-.19l.46-.16c.46-.1.44-1.64.44-3.3l0-1.89c0-.58-.54-.69-.89-.8v-.17a8.2,8.2,0,0,0,2,0,22.68,22.68,0,0,0,1.68,2.57c.58.77.94,1.24,1.54,2v-.42s0-2.25,0-2.46A4.7,4.7,0,0,0,24.83,53c-.12-.26-.36-.3-.83-.49v-.15a13.47,13.47,0,0,0,2.54,0Z"/><path class="cls-1" d="M30.92,56.14l-.05,0,.05,0-.07-.07h0a2.4,2.4,0,0,0-.59-.46l-1.2-.6c-.52-.28-.76-.61-.76-1a1,1,0,0,1,.33-.75l.11-.09,0,0a.92.92,0,0,1,.29-.11,1.76,1.76,0,0,1,.46-.06,2.56,2.56,0,0,1,.39,0,1.61,1.61,0,0,1,.38.08l.36,1h.18l.06-1.45,0,0a3.58,3.58,0,0,0-1.48-.32,2.53,2.53,0,0,0-1.5.46,1.64,1.64,0,0,0-.71,1.38,1.34,1.34,0,0,0,.1.52,2,2,0,0,0,.84.92l.09,0,0,0c.37.21.68.42,1.1.64s.76.63.76,1a2,2,0,0,1,0,.35h0a1.07,1.07,0,0,1-.9.68,3.44,3.44,0,0,1-.46,0,1.75,1.75,0,0,1-1-.22L27.52,57l-.21,0h0l-.18,1.71.05,0a4.12,4.12,0,0,0,1.47.27,3.42,3.42,0,0,0,1.75-.41,1.69,1.69,0,0,0,.56-2.47"/><path class="cls-2" d="M37.18,54.06H37a4.53,4.53,0,0,0-.44-1c-.11-.14-.33-.18-.64-.18h-.8v4.42c0,.53.05.76.15.88a1.91,1.91,0,0,0,.83.41v.18a18.78,18.78,0,0,0-3,0v-.18a1.87,1.87,0,0,0,.82-.41c.11-.12.16-.35.16-.88V52.92H33.3a.79.79,0,0,0-.64.18,5,5,0,0,0-.43,1h-.14V52.32c1.69.08,3.39.08,5.09,0Z"/><path class="cls-2" d="M43.16,57.24l-1-1.63a1.6,1.6,0,0,0,1.51-1.67h0a1.35,1.35,0,0,0-.74-1.25,3,3,0,0,0-1.46-.33l-1,0c-.46,0-.92,0-1.15,0a8.94,8.94,0,0,1-1,0h-.07v.26s1,.07,1,.51c0,.07,0,.33,0,.78v3.59a3.35,3.35,0,0,1-.07.71c-.08.28-.85.41-.85.41l0,.23h.08c.52,0,1-.06,1.51-.06s1,0,1.44.06h.07v-.2a3.55,3.55,0,0,1-.94-.4c-.1-.08-.15-.2-.15-.47,0,0,0-.26,0-.47s0-.38,0-.53v-1H41a33.42,33.42,0,0,1,2,3l.06,0c.24,0,.51,0,.77,0s.56,0,.79,0h.07v-.25c-.44-.07-.92-.52-1.48-1.34M41,55.19h-.64V52.94h.86c1,0,1.38.36,1.39,1.13a1,1,0,0,1-.48.93,2.48,2.48,0,0,1-1.14.2"/><path class="cls-1" d="M50,52.39c-.43,0-.87,0-1.29-.06h-.07v.22s.8.12.92.47a8.57,8.57,0,0,1,.13,1.6c0,.22,0,2.53-.38,3a1.45,1.45,0,0,1-1.19.54,1.59,1.59,0,0,1-1.37-.51c-.65-.79-.33-4.2-.33-4.45,0-.48,1-.66,1-.66v-.23H47.4c-.52,0-1,.05-1.57.05s-1,0-1.5-.05h-.07v.23s1.09.22,1.09.76c0,.19-.18,2-.17,2.78A3.68,3.68,0,0,0,45.64,58a2.83,2.83,0,0,0,2.29.88,2.28,2.28,0,0,0,2.17-1.07,5,5,0,0,0,.38-2.19v-.15c0-.75,0-1.32,0-1.73a6.48,6.48,0,0,1,0-.68c0-.47.83-.56.83-.56v-.21h-.07a12.27,12.27,0,0,1-1.24.06"/><path class="cls-1" d="M56.28,57.65C56.12,58,56,58,56,58a2.09,2.09,0,0,1-.91.21,2.2,2.2,0,0,1-1.8-.69,3.17,3.17,0,0,1-.6-2,2.86,2.86,0,0,1,.59-1.91,2.33,2.33,0,0,1,1.9-.75c.56,0,.78.07,1,.23a4,4,0,0,1,.42.94h.19v-.07c0-.28,0-.56,0-.83s0-.53,0-.78v0h-.05a6.58,6.58,0,0,0-1.4-.14,4.14,4.14,0,0,0-2.7.93,3.27,3.27,0,0,0-1.2,2.54,3,3,0,0,0,1.1,2.42A3.9,3.9,0,0,0,55,59a5,5,0,0,0,1.68-.24l.06,0s0-.62,0-1.68h-.21s-.14.38-.26.64"/><path class="cls-2" d="M62.62,54.08h-.15a4.13,4.13,0,0,0-.44-1c-.11-.14-.33-.18-.64-.18h-.8v4.42c0,.53,0,.76.15.87a1.71,1.71,0,0,0,.83.41v.19a18.78,18.78,0,0,0-3,0v-.19a1.72,1.72,0,0,0,.82-.41c.11-.11.16-.34.16-.87V52.94h-.41a3,3,0,0,0-.4,0,.79.79,0,0,0-.64.18,4.11,4.11,0,0,0-.43,1h-.15V52.34c1.7.08,3.4.08,5.09,0Z"/><path class="cls-1" d="M66.34,52.32a3.12,3.12,0,0,0-2.39,1,3.49,3.49,0,0,0-.88,2.46,3.35,3.35,0,0,0,.85,2.34,2.9,2.9,0,0,0,2.26,1h0A2.89,2.89,0,0,0,68.55,58a3.78,3.78,0,0,0,.81-2.5,3.14,3.14,0,0,0-.81-2.26,2.92,2.92,0,0,0-2.21-.89m1.81,3.61a3.29,3.29,0,0,1-.42,1.73,1.57,1.57,0,0,1-1.45.81,1.68,1.68,0,0,1-1.61-1.09,5,5,0,0,1-.39-2.1,2.68,2.68,0,0,1,.48-1.64,1.71,1.71,0,0,1,1.47-.74c1.27,0,1.91,1,1.92,3Z"/><path class="cls-2" d="M74.61,57.25l-1-1.65a1.6,1.6,0,0,0,1.52-1.67h0a1.36,1.36,0,0,0-.74-1.26,2.92,2.92,0,0,0-1.48-.33l-1,0c-.46,0-.93,0-1.16,0s-.7,0-1-.05H69.6v.26s1,.07,1.06.52c0,.06,0,.33,0,.78v3.61a2.92,2.92,0,0,1-.06.72c-.08.28-.86.42-.86.42l0,.22h.08c.52-.05,1-.07,1.52-.07a13.68,13.68,0,0,1,1.45.07h.07v-.2a3.55,3.55,0,0,1-.94-.4c-.1-.08-.16-.2-.16-.47,0-.05,0-.27,0-.48s0-.38,0-.53v-1h.67a31.79,31.79,0,0,1,2,3.05l.06,0q.38,0,.78,0a6.61,6.61,0,0,1,.79,0h.07V58.6c-.44-.07-.93-.52-1.49-1.35m-2.23-2.06h-.63V52.92h.86c1,0,1.39.37,1.4,1.14a1,1,0,0,1-.49.94,2.62,2.62,0,0,1-1.14.2"/><path class="cls-2" d="M78.83,56.34l1-2.38.9,2.37Zm1.43-4v0H79.8l0,0c-1,2.32-1.3,3.06-2.12,5-.13.29-.19.5-.32.75s-.77.49-.77.49v.25h.07c.35,0,.71,0,1.07,0s.72,0,1.09,0h.07v-.25l-.8-.3c.27-.69.44-1.13.6-1.51h2.21a13.45,13.45,0,0,1,.52,1.51,6.28,6.28,0,0,1-.87.27h0v.25h.07c.42,0,.87-.06,1.34-.06s1,0,1.46.06h.06v-.25a2.14,2.14,0,0,1-.72-.33,2.85,2.85,0,0,1-.34-.73c-1.29-3.12-1.76-4.35-2.08-5.17"/></g></g></svg>