<svg xmlns="http://www.w3.org/2000/svg" viewBox="0 0 46.88 26.99"><defs><style>.cls-1{fill:#fff;}</style></defs><g id="Capa_2" data-name="Capa 2"><g id="Capa_1-2" data-name="Capa 1"><path class="cls-1" d="M26,0H5.07A5.07,5.07,0,0,0,0,5.07V21.91A5.09,5.09,0,0,0,5.07,27H26a5.1,5.1,0,0,0,5.08-5.08V5.07A5.09,5.09,0,0,0,26,0ZM29,21.91A3.07,3.07,0,0,1,26,25H5.07a3.05,3.05,0,0,1-3-3.05V5.07a3,3,0,0,1,3-3H26a3.05,3.05,0,0,1,3.05,3Z"/><path class="cls-1" d="M46.37,2.64a1,1,0,0,0-1,0L34.13,9.27a1,1,0,0,0-.5.88v6.12a1,1,0,0,0,.39.8l11.22,8.71a1,1,0,0,0,1.64-.8V3.52A1,1,0,0,0,46.37,2.64ZM44.85,22.9l-9.19-7.13v-5L44.85,5.3Z"/></g></g></svg>