<svg xmlns="http://www.w3.org/2000/svg" viewBox="0 0 109.87 100"><defs><style>.cls-1{fill:#fff;}</style></defs><g id="Capa_2" data-name="Capa 2"><g id="Capa_1-2" data-name="Capa 1"><path class="cls-1" d="M16.65,67.62h0a1.85,1.85,0,0,0-.06,3.69,1.81,1.81,0,0,0,1.32-.5,1.84,1.84,0,0,0-1.21-3.18Z"/><path class="cls-1" d="M36.65,52.58h0a1.84,1.84,0,0,0-1.84,1.84,1.77,1.77,0,0,0,.53,1.3,1.83,1.83,0,0,0,1.3.55h0a1.84,1.84,0,0,0,1.84-1.84,1.86,1.86,0,0,0-.53-1.3A1.88,1.88,0,0,0,36.65,52.58Z"/><path class="cls-1" d="M31.67,74.93a1.81,1.81,0,0,0,1.32-.5,1.84,1.84,0,0,0-1.21-3.18h-.05A1.84,1.84,0,0,0,29.89,73a1.81,1.81,0,0,0,.5,1.32A1.78,1.78,0,0,0,31.67,74.93Z"/><path class="cls-1" d="M98,49.57c.34.11,1-.74,1.22-.93.74-.75,1.44-1.54,2.13-2.33a29.33,29.33,0,0,0,6.92-12.94A33.23,33.23,0,0,0,109,24.7a48.27,48.27,0,0,0-.82-6.78c-1.51-8.28-1.48-9.12,1-11.85C109.35,5.9,106-.14,105.75,0c-1.62.9-6.76,4.47-5.29,13,1.53,8.89,3.77,23.82-14.57,15.11-3.13-1.49-9.83-5.39-9.83-5.39l-8.81,1L52.78,21.56S42,20.7,41.88,23.26c-.1,3.38,9.36,39.13,12.49,38.93,3.72-.25,10.41-2.61,12.72-3.64-1.07,1.6-8.29,6-14.31,6-3,0-10-23.54-11.14-26.8-.09-.26-.15-.57-.4-.71a1.06,1.06,0,0,0-.94.09c-2.18.93-12.31,5-17.92,7.19L31,69.5a3.59,3.59,0,0,1,.81-.07,3.65,3.65,0,0,1,3.54,3.77,3.65,3.65,0,0,1-3.65,3.55h-.12A3.66,3.66,0,0,1,28.07,73a3.61,3.61,0,0,1,1.29-2.67L19.43,45.57a3.48,3.48,0,0,0-1.37,1.66C15.55,53.54,5.35,79.29,3.53,83.82A3.89,3.89,0,0,1,.22,86.41a.27.27,0,0,0,0,.54,9.51,9.51,0,0,0,4.87-.16c1.14-.46,1.69-1.92,2.07-3,.63-1.75,2-5.09,2-5.09L9.63,100h8L23,90.37,17.29,73.05a4,4,0,0,1-.69.07h-.12a3.66,3.66,0,1,1,3.78-3.54,3.6,3.6,0,0,1-1.16,2.55l-.13.11,6.24,15.08a2.69,2.69,0,0,1,1.25-.38l21.37-1.05L37.43,58a4.16,4.16,0,0,1-.79.09h0A3.63,3.63,0,0,1,34,57a3.66,3.66,0,0,1,2.6-6.23h0A3.66,3.66,0,0,1,39.21,57l-.13.12L51.44,85.7l5.65-.28a3.13,3.13,0,0,1,3,1.83L66,100H77.27s1.1-35.44,2.51-37.57c1.55-2.34,9.85-7.22,14.18-9.75,5.55,2.69,10.58,4.14,12.53,4-4.21-2.23-14.82-8.86-20.84-14.39A65.26,65.26,0,0,0,98,49.57Z"/><path class="cls-1" d="M102.75,46.59,101,48.42c4,1.62,7.44,2.43,8.86,2.27C108.34,50,105.59,48.34,102.75,46.59Z"/></g></g></svg>