<svg xmlns="http://www.w3.org/2000/svg" viewBox="0 0 48.38 45"><defs><style>.cls-1{fill:#fff;}</style></defs><g id="Capa_2" data-name="Capa 2"><g id="Capa_1-2" data-name="Capa 1"><path class="cls-1" d="M33.71,2.27A12.93,12.93,0,0,0,14.88,7.05c-.36.7-1,.61-1.63.61a9.1,9.1,0,0,0-8.61,6.15,1.14,1.14,0,0,1-.74.71A5.83,5.83,0,0,0,0,20.25a5.9,5.9,0,0,0,5.94,5.6H8.07v2.57H6a2.22,2.22,0,1,0,0,1.41H8.78a.71.71,0,0,0,.71-.71V25.85H15.9v9.46H11.65a2.54,2.54,0,1,0,0,1.42h5a.71.71,0,0,0,.71-.71V25.85h6.4V39.06a3,3,0,1,0,1.42,0V25.85h1.54a.71.71,0,1,0,0-1.41H5.94A4.51,4.51,0,0,1,1.42,20.2a4.41,4.41,0,0,1,3-4.34A2.57,2.57,0,0,0,6,14.27a7.7,7.7,0,0,1,7.27-5.19,2.81,2.81,0,0,0,2.89-1.39A11.52,11.52,0,0,1,32.91,3.44a.72.72,0,0,0,1-.18.71.71,0,0,0-.19-1ZM3.9,29.92a.8.8,0,1,1,.8-.8A.8.8,0,0,1,3.9,29.92Zm5.31,7.22A1.12,1.12,0,1,1,10.33,36,1.12,1.12,0,0,1,9.21,37.14ZM26,42a1.6,1.6,0,0,1-3.19,0A1.6,1.6,0,1,1,26,42Z"/><path class="cls-1" d="M39,24.44H30a.71.71,0,1,0,0,1.41h1.54V36a.71.71,0,0,0,.71.71h5a2.53,2.53,0,1,0,0-1.42H32.94V25.85h6.45v3.28a.71.71,0,0,0,.71.71h2.78a2.22,2.22,0,1,0,0-1.41H40.81V25.67a9.36,9.36,0,0,0,7.56-9.26,9.25,9.25,0,0,0-9.58-9.07,1.16,1.16,0,0,1-1-.6,13,13,0,0,0-1.44-2.1.71.71,0,1,0-1.08.91A11.84,11.84,0,0,1,36.5,7.42a2.59,2.59,0,0,0,2.25,1.33h.09A7.86,7.86,0,0,1,47,16.44,8,8,0,0,1,39,24.44Zm.67,10.46A1.12,1.12,0,1,1,38.5,36a1.12,1.12,0,0,1,1.12-1.12ZM45,28.33a.8.8,0,0,1,0,1.59.8.8,0,1,1,0-1.59Z"/></g></g></svg>